<svg xmlns="http://www.w3.org/2000/svg" viewBox="0 0 803.85 337.35"><defs><style>.cls-1{fill:#fff;}</style></defs><g id="Layer_3" data-name="Layer 3"><path class="cls-1" d="M381.27,182.25a34.31,34.31,0,0,0,13.16-2.39,26.62,26.62,0,0,0,9.8-6.85,30.19,30.19,0,0,0,6.12-10.89,46.6,46.6,0,0,0,2.11-14.6V55.85h36.61v91.67a70.37,70.37,0,0,1-4.71,26.13,58.65,58.65,0,0,1-13.48,20.5,61.2,61.2,0,0,1-21.34,13.38,86.31,86.31,0,0,1-56.65,0,61.07,61.07,0,0,1-21.33-13.38,57.85,57.85,0,0,1-13.43-20.5,71,71,0,0,1-4.66-26.13V55.85h36.61v91.56a46.6,46.6,0,0,0,2.11,14.6,30.72,30.72,0,0,0,6.12,11,26.28,26.28,0,0,0,9.8,6.9A34.31,34.31,0,0,0,381.27,182.25Z"/><path class="cls-1" d="M480.05,210.61V55.85H538.1q16.35,0,27.84,3t18.74,8.39a32.07,32.07,0,0,1,10.56,13.17,43.8,43.8,0,0,1,3.3,17.32,33.42,33.42,0,0,1-1.52,10,29.42,29.42,0,0,1-4.76,9.08,35.47,35.47,0,0,1-8.34,7.7,54.52,54.52,0,0,1-12.24,6q15.6,3.72,23.07,12.06t7.47,21.4a43.54,43.54,0,0,1-3.9,18.38,42.24,42.24,0,0,1-11.42,14.81,54.35,54.35,0,0,1-18.58,9.88,82,82,0,0,1-25.24,3.56ZM516.66,121h19.06a63.71,63.71,0,0,0,10.94-.85,23.14,23.14,0,0,0,8.28-3,13.73,13.73,0,0,0,5.2-5.85,21.51,21.51,0,0,0,1.79-9.34,25.81,25.81,0,0,0-1.41-9.19,13.23,13.23,0,0,0-4.33-5.9,18.34,18.34,0,0,0-7.42-3.18,51.71,51.71,0,0,0-10.67-1H516.66Zm0,24v38.55h25.77a33,33,0,0,0,11.86-1.8,18.82,18.82,0,0,0,7.21-4.67,15.71,15.71,0,0,0,3.57-6.48,28,28,0,0,0,1-7.33,24,24,0,0,0-1.14-7.65,12.66,12.66,0,0,0-3.9-5.74,19.32,19.32,0,0,0-7.31-3.61A43.4,43.4,0,0,0,542.22,145Z"/><path class="cls-1" d="M735.33,170.57a7.41,7.41,0,0,1,2.6.47,7,7,0,0,1,2.49,1.65l14.52,15a60.23,60.23,0,0,1-23.89,18.43q-14.34,6.21-33.95,6.21-18,0-32.22-6a69.7,69.7,0,0,1-24.16-16.57,72.67,72.67,0,0,1-15.21-25.07,90.9,90.9,0,0,1-5.31-31.49,81.71,81.71,0,0,1,6.06-31.82,74.34,74.34,0,0,1,17-25,76.61,76.61,0,0,1,26-16.36,92.5,92.5,0,0,1,33.47-5.84,86.73,86.73,0,0,1,16.74,1.54,82.16,82.16,0,0,1,14.67,4.25,68.9,68.9,0,0,1,12.57,6.48,61,61,0,0,1,10.18,8.33L744.54,91a15.43,15.43,0,0,1-2.82,2.7,7.39,7.39,0,0,1-4.55,1.23,8.35,8.35,0,0,1-3.68-.85A41.35,41.35,0,0,1,729.81,92l-4.28-2.65A33.08,33.08,0,0,0,720,86.7a47.33,47.33,0,0,0-7.48-2.07,52.47,52.47,0,0,0-10-.85,46.61,46.61,0,0,0-18.19,3.45,40.1,40.1,0,0,0-14.14,9.88,45.8,45.8,0,0,0-9.2,15.56,59.87,59.87,0,0,0-3.31,20.51A62.36,62.36,0,0,0,661,154.31a46.29,46.29,0,0,0,9,15.57,38.15,38.15,0,0,0,13.27,9.61,40.37,40.37,0,0,0,16.24,3.29,79,79,0,0,0,9.1-.48,38.36,38.36,0,0,0,7.64-1.64,35.83,35.83,0,0,0,6.71-3,45.2,45.2,0,0,0,6.45-4.62,12.59,12.59,0,0,1,2.81-1.75A7.51,7.51,0,0,1,735.33,170.57Z"/><path class="cls-1" d="M313.2,285.33l13.25-52.67h17.32l13.33,52.67h-8.78L345.42,274H324.8l-2.9,11.31Zm20-45.52-6.66,26.68H343.7l-6.59-26.68Z"/><path class="cls-1" d="M364.78,285.33V232.66h33.87v7.46H373.49V255H394v7.38H373.49v15.38h25.16v7.54Z"/><path class="cls-1" d="M416.84,266.57v18.76h-8.71V232.66h20.39q18.18,0,18.18,16.76,0,11.24-8.78,15.22l8.86,20.69h-9.56l-7.76-18.76Zm20.93-17.07q0-9.47-9.25-9.46H416.84v19.15h11.83q4.71,0,6.9-2.66A10.7,10.7,0,0,0,437.77,249.5Z"/><path class="cls-1" d="M493.07,279.71q-4.81,6.46-17,6.46t-17-6.5q-4.86-6.5-4.86-20.41t4.9-20.68q4.89-6.77,17-6.76T493,238.54q4.86,6.74,4.86,20.72T493.07,279.71Zm-27.16-5.53q2.67,4.53,10.19,4.53t10.15-4.46q2.63-4.46,2.63-14.95T486.18,244q-2.71-4.77-10.08-4.77T466,244q-2.75,4.77-2.74,15.18T465.91,274.18Z"/><path class="cls-1" d="M526.59,285.33H508V232.66h18.58q12.38,0,16.93,6.15t4.55,19.3a60.71,60.71,0,0,1-.91,11.34,25.66,25.66,0,0,1-3.17,8.42Q539.52,285.32,526.59,285.33Zm12.46-27.22q0-9.54-2.43-13.76t-10-4.23h-9.88v37.67h9.88q7.75,0,10.34-5.61a22.25,22.25,0,0,0,1.69-6.08A61.38,61.38,0,0,0,539.05,258.11Z"/><path class="cls-1" d="M558.26,285.33V232.66h33.86v7.46H567V255h20.46v7.38H567v15.38h25.16v7.54Z"/><path class="cls-1" d="M617.36,239.27q-9.95,0-10,6.85,0,3.52,2.35,5t10.39,3.69q8,2.19,11.32,5.23t3.3,9.57q0,8.31-4.82,12.42t-13.13,4.11a78.87,78.87,0,0,1-14.74-1.54l-2.82-.53.86-6.85a133.54,133.54,0,0,0,16.15,1.39q9.72,0,9.72-8.46a5.62,5.62,0,0,0-2.2-4.88q-2.19-1.57-9.88-3.46t-11.44-5.19q-3.76-3.3-3.76-10.46t4.74-10.8q4.74-3.64,13.13-3.65a88.06,88.06,0,0,1,14.27,1.38l2.74.46-.7,6.92Q621.91,239.27,617.36,239.27Z"/><path class="cls-1" d="M644.17,285.33V232.66h8.71v52.67Z"/><path class="cls-1" d="M687.13,265.18v-7.53h15.29V284.4a69.19,69.19,0,0,1-8.58,1.16q-6.48.62-9.37.61-12.22,0-16.86-6.61T663,258.84q0-14.11,4.74-20.57t16.42-6.45a89.81,89.81,0,0,1,15.53,1.53l2.74.54-.31,6.77a133.8,133.8,0,0,0-17-1.23q-7.53,0-10.31,4.15T672,259q0,11.22,2.63,15.49t10.62,4.26a38.93,38.93,0,0,0,8.55-.69V265.18Z"/><path class="cls-1" d="M713.32,285.33V232.66h15.2l16.31,45.13H746V232.66h8.7v52.67h-14.9l-16.69-45.21H722v45.21Z"/><path class="cls-1" d="M300.62,261.46c-32.26-10-60.83-21.3-86.46-34-.14.19-.27.38-.39.56l-.3.42a40.25,40.25,0,0,1-11.82,11.93,38.05,38.05,0,0,1-9.76,4.36c27.85,10.6,58.72,17.47,91.05,17.47Q291.72,262.15,300.62,261.46Z"/><path class="cls-1" d="M120.3,205.79h0c-3.21,2.32-6.65,5.77-11.15,7.91a160.38,160.38,0,0,0,42.2,12c-23.65-2-43.48-6.09-57.59-11.16A47.35,47.35,0,0,0,101.2,210c3.21-2.46,6.45-5.17,7.48-6.74-21.54-4.56-30.09-9.73-40.92-16.49,8.53,7.7,14.72,13.14,26.45,19.59a90,90,0,0,1-10.93,5.25c-4.85,2.08-9.38,3.88-9.38,3.88l0,0c26.93,12.24,61.44,22.64,102.1,22.64h.14c19.65,0,26.11-8.64,30.32-14.67,1.67-2.39,3-4.37,4.64-5.27,2.25-1.23,6-1.65,9.94-1.65a110.66,110.66,0,0,1,17.5,1.76c-13.75-4.85-12.09-23.28-33.43-23.28h-.31a83.92,83.92,0,0,0-15.35,2.07,27.13,27.13,0,0,1-5.32.5c-23,0-56.07-25.48-78.45-47.53l-.19-.19C84,128.42,64.9,104.71,47,78.65c2.73,24.21,8.92,52.87,22.58,74.9C80.15,170.66,96.51,188.42,120.3,205.79Z"/><path class="cls-1" d="M280.74,270.7v8H63.63V160.24c-.47-.72-.93-1.45-1.38-2.17A122.63,122.63,0,0,1,56.18,147v139.2h232V270.66c-1.76,0-3.51.06-5.26.06Z"/><path class="cls-1" d="M63.63,87.36V61.6H280.74V245.92c2.47.86,4.95,1.7,7.46,2.54V54.15h-232V76.89Q59.9,82.23,63.63,87.36Z"/></g></svg>