<svg xmlns="http://www.w3.org/2000/svg" viewBox="0 0 1013.63 231.92"><defs><style>.cls-1{fill:#fff;}</style></defs><g id="Layer_3" data-name="Layer 3"><path class="cls-1" d="M210.59,99.18q0,13.16,14.06,13.16t14.07-13.16V53.06H250V99q0,12-6.38,17.47t-19,5.49q-12.6,0-18.94-5.49T199.33,99V53.06h11.26Z"/><path class="cls-1" d="M265.25,53.06h26.13q10.55,0,15.77,4.21t5.23,13.41q0,6-2,9.5a15.09,15.09,0,0,1-6.18,5.74q9.84,3.75,9.85,15.73,0,19.2-21.91,19.2H265.25Zm25.52,9.5H276.4V82h14.78Q301,82,301,72,301,62.56,290.77,62.56Zm.61,28.7h-15v20.09h15.18q5.52,0,8.29-2.28c1.84-1.51,2.76-4.12,2.76-7.81s-1.07-6.29-3.21-7.77A13.78,13.78,0,0,0,291.38,91.26Z"/><path class="cls-1" d="M349.86,121.94q-15.08,0-20.45-8.22t-5.38-27q0-18.81,5.43-26.77t20.4-8a88.47,88.47,0,0,1,19.7,2.48l-.41,8.9a105.25,105.25,0,0,0-18.08-1.58q-9,0-12.26,5.29T335.59,87q0,14.61,3.12,19.9c2.07,3.53,6.13,5.29,12.15,5.29a115.14,115.14,0,0,0,18.29-1.48l.31,9.1A95.59,95.59,0,0,1,349.86,121.94Z"/><path class="cls-1" d="M397.59,120.85l17-67.79h22.21l17.08,67.79H442.61l-3.72-14.55H412.46l-3.72,14.55Zm25.62-58.59L414.67,96.6h22l-8.44-34.34Z"/><path class="cls-1" d="M463.71,120.85V53.06h43.41v9.6H474.86v19.2h26.23v9.5H474.86v19.79h32.26v9.7Z"/><path class="cls-1" d="M530.43,96.7v24.15H519.28V53.06h26.13q23.31,0,23.31,21.57,0,14.46-11.26,19.6l11.36,26.62H556.56L546.61,96.7Zm26.83-22q0-12.16-11.85-12.17h-15V87.2h15.18q6,0,8.84-3.41A13.84,13.84,0,0,0,557.26,74.73Z"/><path class="cls-1" d="M628.16,113.63q-6.18,8.31-21.76,8.31t-21.81-8.36q-6.23-8.37-6.23-26.28t6.29-26.62Q590.92,52,606.4,52t21.71,8.66q6.23,8.67,6.23,26.67T628.16,113.63Zm-34.82-7.13q3.4,5.84,13.06,5.84t13-5.74q3.38-5.75,3.37-19.25t-3.47-19.64q-3.46-6.13-12.91-6.14t-13,6.14q-3.53,6.14-3.52,19.54T593.34,106.5Z"/><path class="cls-1" d="M671.11,120.85H647.3V53.06h23.81q15.89,0,21.71,7.92t5.83,24.84a78.38,78.38,0,0,1-1.16,14.59,33,33,0,0,1-4.07,10.84Q687.69,120.85,671.11,120.85Zm16-35q0-12.27-3.11-17.72t-12.87-5.44H658.45v48.49h12.66q10,0,13.27-7.22a28.91,28.91,0,0,0,2.16-7.82A79.82,79.82,0,0,0,687.09,85.82Z"/><path class="cls-1" d="M711.71,120.85V53.06h43.41v9.6H722.86v19.2h26.23v9.5H722.86v19.79h32.26v9.7Z"/><path class="cls-1" d="M787.48,61.57q-12.76,0-12.77,8.81c0,3,1,5.2,3,6.48s6.45,2.87,13.31,4.75,11.71,4.13,14.52,6.73,4.22,6.71,4.22,12.32q0,10.7-6.18,16t-16.83,5.3a101.27,101.27,0,0,1-18.89-2l-3.62-.69,1.11-8.81a171.49,171.49,0,0,0,20.7,1.78q12.46,0,12.46-10.89c0-2.83-.94-4.93-2.81-6.28s-6.1-2.84-12.67-4.45-11.45-3.85-14.67-6.68-4.82-7.33-4.82-13.46,2-10.77,6.08-13.91,9.66-4.7,16.83-4.7a112.77,112.77,0,0,1,18.29,1.78l3.52.6-.91,8.91Q793.3,61.57,787.48,61.57Z"/><path class="cls-1" d="M821.84,120.85V53.06H833v67.79Z"/><path class="cls-1" d="M876.91,94.92v-9.7H896.5v34.44a89.35,89.35,0,0,1-11,1.49q-8.29.8-12,.79-15.68,0-21.6-8.51T846,86.76Q846,68.6,852,60.29T873.09,52A114,114,0,0,1,893,54l3.51.69-.4,8.71a171.43,171.43,0,0,0-21.8-1.58q-9.64,0-13.22,5.34t-3.56,19.8q0,14.45,3.36,19.94t13.62,5.49a49.75,49.75,0,0,0,11-.89V94.92Z"/><path class="cls-1" d="M910.47,120.85V53.06H930l20.9,58.09h1.5V53.06h11.16v67.79H944.44L923,62.66h-1.4v58.19Z"/><path class="cls-1" d="M224.55,139.29v4.45H204.9v13.39h15.91v4.27H204.9v13.75h19.65v4.45H199.33V139.29Z"/><path class="cls-1" d="M236.47,139.48a2.75,2.75,0,0,1,.81.74L261,170.6c-.05-.49-.09-1-.11-1.42s0-.91,0-1.34V139.29h4.86V179.6h-2.8a2.39,2.39,0,0,1-1.1-.23,2.61,2.61,0,0,1-.87-.76l-23.68-30.34c0,.46.07.92.09,1.37s0,.87,0,1.24V179.6h-4.86V139.29h2.86A2.56,2.56,0,0,1,236.47,139.48Z"/><path class="cls-1" d="M293.94,175.63a28.36,28.36,0,0,0,3-.15,20.2,20.2,0,0,0,2.61-.47,17.49,17.49,0,0,0,2.32-.74c.72-.29,1.44-.63,2.17-1v-8.89h-6.34a1.17,1.17,0,0,1-.87-.31,1,1,0,0,1-.33-.76v-3.09H309.1v15.47a22.81,22.81,0,0,1-3.21,1.91,21.64,21.64,0,0,1-3.57,1.36,25.93,25.93,0,0,1-4.07.82,38.34,38.34,0,0,1-4.71.27,21.64,21.64,0,0,1-8.17-1.51,18.84,18.84,0,0,1-6.4-4.22,19.28,19.28,0,0,1-4.18-6.51,22.51,22.51,0,0,1-1.5-8.35,23.09,23.09,0,0,1,1.47-8.41,18.45,18.45,0,0,1,4.2-6.51,18.91,18.91,0,0,1,6.6-4.21,24,24,0,0,1,8.66-1.49,26.63,26.63,0,0,1,4.52.36,21.05,21.05,0,0,1,3.87,1,17.92,17.92,0,0,1,3.29,1.6,20.47,20.47,0,0,1,2.83,2.12l-1.57,2.48a1.44,1.44,0,0,1-1.26.76,2,2,0,0,1-1-.31q-.7-.39-1.59-1a15,15,0,0,0-2.16-1.08,18,18,0,0,0-3-.89,20.35,20.35,0,0,0-4.1-.36,16.8,16.8,0,0,0-6.25,1.11,13.15,13.15,0,0,0-4.77,3.18,14.24,14.24,0,0,0-3,5,21.48,21.48,0,0,0,.05,13.42,14.22,14.22,0,0,0,3.09,5.07,13.47,13.47,0,0,0,4.74,3.18A16.22,16.22,0,0,0,293.94,175.63Z"/><path class="cls-1" d="M324.18,179.6h-5.54V139.29h5.54Z"/><path class="cls-1" d="M339.1,139.48a2.75,2.75,0,0,1,.81.74l23.71,30.38c-.06-.49-.1-1-.12-1.42s0-.91,0-1.34V139.29h4.86V179.6h-2.8a2.39,2.39,0,0,1-1.1-.23,2.61,2.61,0,0,1-.87-.76l-23.67-30.34c0,.46.06.92.08,1.37s0,.87,0,1.24V179.6h-4.85V139.29H338A2.52,2.52,0,0,1,339.1,139.48Z"/><path class="cls-1" d="M403.54,139.29v4.45H383.89v13.39H399.8v4.27H383.89v13.75h19.65v4.45H378.32V139.29Z"/><path class="cls-1" d="M436.72,139.29v4.45H417.07v13.39H433v4.27H417.07v13.75h19.65v4.45H411.51V139.29Z"/><path class="cls-1" d="M450.77,162.78V179.6h-5.51V139.29h11.56a25.53,25.53,0,0,1,6.72.78,12.8,12.8,0,0,1,4.66,2.23,9,9,0,0,1,2.73,3.53,11.65,11.65,0,0,1,.89,4.63,11.34,11.34,0,0,1-.69,4,10.74,10.74,0,0,1-2,3.34A12,12,0,0,1,466,160.3a15.8,15.8,0,0,1-4.24,1.58,5.75,5.75,0,0,1,1.82,1.71l11.94,16h-4.91a2.44,2.44,0,0,1-2.23-1.16L457.74,164a3.18,3.18,0,0,0-1.06-1,4,4,0,0,0-1.71-.29Zm0-4h5.8a14.48,14.48,0,0,0,4.27-.57,8.79,8.79,0,0,0,3.08-1.64,6.75,6.75,0,0,0,1.87-2.51,8.14,8.14,0,0,0,.63-3.24,6.35,6.35,0,0,0-2.41-5.42q-2.42-1.83-7.19-1.83h-6.05Z"/><path class="cls-1" d="M488,179.6H482.5V139.29H488Z"/><path class="cls-1" d="M503,139.48a2.88,2.88,0,0,1,.81.74l23.7,30.38c-.05-.49-.09-1-.11-1.42s0-.91,0-1.34V139.29h4.85V179.6h-2.79a2.39,2.39,0,0,1-1.1-.23,2.61,2.61,0,0,1-.87-.76l-23.68-30.34c0,.46.07.92.09,1.37s0,.87,0,1.24V179.6H499V139.29h2.86A2.56,2.56,0,0,1,503,139.48Z"/><path class="cls-1" d="M560.43,175.63a28.5,28.5,0,0,0,3-.15,20.2,20.2,0,0,0,2.61-.47,16.89,16.89,0,0,0,2.31-.74c.73-.29,1.45-.63,2.17-1v-8.89h-6.33a1.21,1.21,0,0,1-.88-.31,1,1,0,0,1-.32-.76v-3.09h12.56v15.47a22.81,22.81,0,0,1-3.21,1.91,22.35,22.35,0,0,1-3.57,1.36,25.93,25.93,0,0,1-4.07.82,38.34,38.34,0,0,1-4.71.27,21.6,21.6,0,0,1-8.17-1.51,18.74,18.74,0,0,1-6.4-4.22,19.12,19.12,0,0,1-4.18-6.51,22.51,22.51,0,0,1-1.5-8.35,23.09,23.09,0,0,1,1.47-8.41,18.45,18.45,0,0,1,4.2-6.51,18.91,18.91,0,0,1,6.6-4.21,24,24,0,0,1,8.66-1.49,26.51,26.51,0,0,1,4.51.36,21.05,21.05,0,0,1,3.87,1,18,18,0,0,1,3.3,1.6,21.09,21.09,0,0,1,2.83,2.12l-1.57,2.48a1.45,1.45,0,0,1-1.26.76,2,2,0,0,1-1-.31c-.47-.26-1-.58-1.6-1a14.79,14.79,0,0,0-2.15-1.08,18,18,0,0,0-3-.89,20.35,20.35,0,0,0-4.1-.36,16.8,16.8,0,0,0-6.25,1.11,13.15,13.15,0,0,0-4.77,3.18,14.09,14.09,0,0,0-3,5,19.52,19.52,0,0,0-1.06,6.6,19.79,19.79,0,0,0,1.1,6.82,14.38,14.38,0,0,0,3.1,5.07,13.38,13.38,0,0,0,4.74,3.18A16.22,16.22,0,0,0,560.43,175.63Z"/><path class="cls-1" d="M630.59,159.46a22.42,22.42,0,0,1-1.46,8.24,17.9,17.9,0,0,1-10.48,10.45,22.52,22.52,0,0,1-8.22,1.45H595.12V139.29h15.31a22.52,22.52,0,0,1,8.22,1.45,18,18,0,0,1,10.48,10.48A22.38,22.38,0,0,1,630.59,159.46Zm-5.68,0a20.08,20.08,0,0,0-1-6.64,14.1,14.1,0,0,0-2.91-4.95,12.42,12.42,0,0,0-4.57-3.09,16.06,16.06,0,0,0-6-1.07h-9.74v31.47h9.74a16.06,16.06,0,0,0,6-1.07A12.52,12.52,0,0,0,621,171a13.92,13.92,0,0,0,2.91-4.93A20.12,20.12,0,0,0,624.91,159.46Z"/><path class="cls-1" d="M663.34,139.29v4.45H643.7v13.39h15.9v4.27H643.7v13.75h19.64v4.45H638.13V139.29Z"/><path class="cls-1" d="M692.27,145.59a2.09,2.09,0,0,1-.54.64,1.22,1.22,0,0,1-.74.21,2,2,0,0,1-1.13-.48,18.75,18.75,0,0,0-1.63-1.06,14,14,0,0,0-2.37-1.05,11.6,11.6,0,0,0-6.64,0,7,7,0,0,0-2.38,1.34,5.52,5.52,0,0,0-1.45,2,6.27,6.27,0,0,0-.48,2.46,4.5,4.5,0,0,0,.84,2.8,7.2,7.2,0,0,0,2.23,1.9,16.49,16.49,0,0,0,3.14,1.36l3.6,1.2c1.23.41,2.43.88,3.6,1.39a12.89,12.89,0,0,1,3.14,2,9,9,0,0,1,2.23,2.89,9.56,9.56,0,0,1,.84,4.22,13.46,13.46,0,0,1-.92,5,11.46,11.46,0,0,1-2.67,4,12.4,12.4,0,0,1-4.31,2.7,16,16,0,0,1-5.81,1,18.09,18.09,0,0,1-7.24-1.42,17,17,0,0,1-5.58-3.84l1.6-2.59a2.09,2.09,0,0,1,.55-.52,1.35,1.35,0,0,1,.73-.21,2.28,2.28,0,0,1,1.37.63,23.1,23.1,0,0,0,1.93,1.39,14.32,14.32,0,0,0,2.8,1.39,11,11,0,0,0,4,.64,10.52,10.52,0,0,0,3.51-.54,7.4,7.4,0,0,0,2.62-1.5,6.58,6.58,0,0,0,1.64-2.32,7.65,7.65,0,0,0,.57-3,5,5,0,0,0-.84-3,6.92,6.92,0,0,0-2.22-2,15.42,15.42,0,0,0-3.12-1.34l-3.6-1.12a36.9,36.9,0,0,1-3.6-1.34,11.6,11.6,0,0,1-3.13-2,9,9,0,0,1-2.21-3,10.93,10.93,0,0,1,2.44-12.16,12,12,0,0,1,4-2.48,14.64,14.64,0,0,1,5.41-.93,17.59,17.59,0,0,1,6.25,1.07,14.52,14.52,0,0,1,4.94,3.1Z"/><path class="cls-1" d="M708.15,179.6h-5.54V139.29h5.54Z"/><path class="cls-1" d="M737.36,175.63a28.23,28.23,0,0,0,3-.15A20,20,0,0,0,743,175a17.35,17.35,0,0,0,2.31-.74c.72-.29,1.45-.63,2.17-1v-8.89h-6.34a1.2,1.2,0,0,1-.87-.31,1,1,0,0,1-.33-.76v-3.09h12.57v15.47a22.36,22.36,0,0,1-3.22,1.91,21.64,21.64,0,0,1-3.57,1.36,25.7,25.7,0,0,1-4.07.82,38.1,38.1,0,0,1-4.71.27,21.55,21.55,0,0,1-8.16-1.51,18.74,18.74,0,0,1-6.4-4.22,19.15,19.15,0,0,1-4.19-6.51,22.72,22.72,0,0,1-1.49-8.35,23.09,23.09,0,0,1,1.47-8.41,18.57,18.57,0,0,1,4.19-6.51,18.91,18.91,0,0,1,6.6-4.21,24,24,0,0,1,8.67-1.49,26.51,26.51,0,0,1,4.51.36,21.05,21.05,0,0,1,3.87,1,18,18,0,0,1,3.3,1.6,20.37,20.37,0,0,1,2.82,2.12l-1.57,2.48a1.43,1.43,0,0,1-1.25.76,2,2,0,0,1-1-.31c-.48-.26-1-.58-1.6-1a14.45,14.45,0,0,0-2.16-1.08,17.42,17.42,0,0,0-3-.89,20.24,20.24,0,0,0-4.09-.36,16.86,16.86,0,0,0-6.26,1.11,13.32,13.32,0,0,0-4.77,3.18,14.07,14.07,0,0,0-3,5,19.28,19.28,0,0,0-1.06,6.6,19.79,19.79,0,0,0,1.1,6.82,14.1,14.1,0,0,0,3.1,5.07,13.29,13.29,0,0,0,4.74,3.18A16.17,16.17,0,0,0,737.36,175.63Z"/><path class="cls-1" d="M765,139.48a2.75,2.75,0,0,1,.81.74l23.71,30.38c-.06-.49-.1-1-.12-1.42s0-.91,0-1.34V139.29h4.86V179.6h-2.8a2.39,2.39,0,0,1-1.1-.23,2.61,2.61,0,0,1-.87-.76l-23.67-30.34c0,.46.06.92.08,1.37s0,.87,0,1.24V179.6H761V139.29h2.85A2.52,2.52,0,0,1,765,139.48Z"/><path class="cls-1" d="M843.11,139.29v4.59H829.88V179.6h-5.54V143.88H811.07v-4.59Z"/><path class="cls-1" d="M874.15,139.29v4.45H854.5v13.39h15.91v4.27H854.5v13.75h19.65v4.45H848.93V139.29Z"/><path class="cls-1" d="M915.78,179.6H911.5a1.87,1.87,0,0,1-1.2-.37,2.32,2.32,0,0,1-.69-.93l-3.82-9.73H887.43l-3.83,9.73a2.1,2.1,0,0,1-.69.9,1.85,1.85,0,0,1-1.2.4h-4.28l16.36-40.31h5.63Zm-26.81-15h15.28l-6.43-16.39a30,30,0,0,1-1.23-3.8c-.21.77-.41,1.48-.61,2.12s-.4,1.22-.59,1.71Z"/><path class="cls-1" d="M941.78,166.45c.2.49.4,1,.59,1.5q.28-.78.6-1.5c.21-.48.45-1,.71-1.45l13.85-24.78a1.63,1.63,0,0,1,.77-.78,3.44,3.44,0,0,1,1.15-.15h4.08V179.6h-4.86V150q0-.58,0-1.26t.09-1.38l-14,25.2a2.22,2.22,0,0,1-2,1.26H942a2.21,2.21,0,0,1-2-1.26l-14.34-25.29c.06.49.1,1,.13,1.44s0,.9,0,1.29V179.6H921V139.29H925a3.44,3.44,0,0,1,1.15.15,1.63,1.63,0,0,1,.77.78L941.08,165A9.86,9.86,0,0,1,941.78,166.45Z"/><path class="cls-1" d="M190.23,166.39a315.25,315.25,0,0,1-47.77-18.81l-.21.31-.17.24a22.39,22.39,0,0,1-6.53,6.59,21.24,21.24,0,0,1-5.39,2.41,141.9,141.9,0,0,0,50.3,9.65Q185.31,166.78,190.23,166.39Z"/><path class="cls-1" d="M90.61,135.64h0c-1.77,1.28-3.67,3.19-6.16,4.37a88.65,88.65,0,0,0,23.31,6.63c-13.06-1.1-24-3.36-31.81-6.17A26.08,26.08,0,0,0,80.06,138a22.91,22.91,0,0,0,4.13-3.72c-11.9-2.52-16.62-5.38-22.6-9.11,4.71,4.25,8.13,7.26,14.61,10.82a49.59,49.59,0,0,1-6,2.9C67.48,140,65,141,65,141v0a135.76,135.76,0,0,0,56.4,12.5h.08c10.85,0,14.42-4.77,16.75-8.1a9.23,9.23,0,0,1,2.56-2.91,12.47,12.47,0,0,1,5.49-.91,61.73,61.73,0,0,1,9.67,1c-7.6-2.68-6.68-12.86-18.47-12.86h-.17a46.85,46.85,0,0,0-8.48,1.14,14.81,14.81,0,0,1-2.94.28c-12.7,0-31-14.08-43.33-26.26l-.11-.1A277.52,277.52,0,0,1,50.1,65.41c1.5,13.37,4.92,29.2,12.47,41.37C68.43,116.23,77.47,126.05,90.61,135.64Z"/><path class="cls-1" d="M179.24,171.5v4.43H59.31V110.48c-.26-.4-.52-.8-.77-1.2a69.55,69.55,0,0,1-3.35-6.13v76.9H183.36v-8.57l-2.9,0Z"/><path class="cls-1" d="M59.31,70.22V56H179.24V157.81l4.12,1.4V51.87H55.19V64.44Q57.25,67.38,59.31,70.22Z"/></g></svg>