<svg xmlns="http://www.w3.org/2000/svg" viewBox="0 0 1013.63 231.92"><defs><style>.cls-1{fill:#003565;}.cls-2{fill:none;}</style></defs><g id="Layer_3" data-name="Layer 3"><path class="cls-1" d="M208.06,100q0,13.16,14.06,13.16T236.19,100V53.85h11.26V99.77q0,12-6.38,17.47t-19,5.49q-12.6,0-18.94-5.49T196.8,99.77V53.85h11.26Z"/><path class="cls-1" d="M262.72,53.85h26.13q10.54,0,15.77,4.21t5.23,13.41q0,6-2,9.5a15.09,15.09,0,0,1-6.18,5.74q9.84,3.77,9.85,15.73,0,19.22-21.91,19.2H262.72Zm25.52,9.5H273.87v19.4h14.78q9.84,0,9.84-10Q298.49,63.35,288.24,63.35Zm.61,28.7h-15v20.09h15.18q5.52,0,8.29-2.27t2.76-7.82q0-5.55-3.21-7.77A13.78,13.78,0,0,0,288.85,92.05Z"/><path class="cls-1" d="M347.33,122.73q-15.07,0-20.45-8.21t-5.38-27q0-18.8,5.43-26.77t20.4-8A88.47,88.47,0,0,1,367,55.24l-.41,8.91a104.19,104.19,0,0,0-18.08-1.59q-9,0-12.26,5.3t-3.22,19.89q0,14.6,3.12,19.89t12.16,5.29a115.11,115.11,0,0,0,18.28-1.48l.31,9.1A94.9,94.9,0,0,1,347.33,122.73Z"/><path class="cls-1" d="M395.06,121.64l17-67.79h22.21l17.08,67.79H440.08l-3.72-14.54H409.93l-3.72,14.54Zm25.62-58.58L412.14,97.4h22l-8.44-34.34Z"/><path class="cls-1" d="M461.18,121.64V53.85h43.41v9.6H472.33v19.2h26.23v9.5H472.33v19.79h32.26v9.7Z"/><path class="cls-1" d="M527.9,97.5v24.14H516.75V53.85h26.13q23.31,0,23.31,21.58,0,14.44-11.26,19.59l11.36,26.62H554L544.08,97.5Zm26.83-22q0-12.16-11.85-12.17h-15V88h15.18q6,0,8.84-3.42A13.8,13.8,0,0,0,554.73,75.52Z"/><path class="cls-1" d="M625.63,114.42q-6.18,8.31-21.76,8.31t-21.8-8.36q-6.24-8.37-6.24-26.28t6.29-26.62q6.27-8.7,21.75-8.71t21.71,8.66q6.23,8.67,6.23,26.67T625.63,114.42Zm-34.82-7.13q3.41,5.85,13.06,5.84t13-5.74q3.38-5.73,3.37-19.25T616.78,68.5q-3.46-6.14-12.91-6.14t-13,6.14q-3.52,6.14-3.52,19.55T590.81,107.29Z"/><path class="cls-1" d="M668.58,121.64H644.77V53.85h23.81q15.88,0,21.71,7.92t5.83,24.84a78.49,78.49,0,0,1-1.16,14.6A33,33,0,0,1,690.89,112Q685.16,121.64,668.58,121.64Zm16-35q0-12.27-3.11-17.72t-12.87-5.44H655.92v48.49h12.66q10,0,13.27-7.22A28.91,28.91,0,0,0,684,96.9,79.82,79.82,0,0,0,684.56,86.61Z"/><path class="cls-1" d="M709.18,121.64V53.85h43.41v9.6H720.33v19.2h26.23v9.5H720.33v19.79h32.26v9.7Z"/><path class="cls-1" d="M785,62.36q-12.76,0-12.77,8.81,0,4.56,3,6.48t13.31,4.75q10.31,2.82,14.52,6.73t4.22,12.32q0,10.69-6.18,16t-16.83,5.29a101.27,101.27,0,0,1-18.89-2l-3.62-.69,1.11-8.81a171.49,171.49,0,0,0,20.7,1.78Q796,113,796,102.15c0-2.84-.94-4.93-2.81-6.29s-6.1-2.83-12.66-4.45-11.46-3.84-14.68-6.68S761,77.41,761,71.27s2-10.77,6.08-13.9,9.66-4.71,16.83-4.71a111.79,111.79,0,0,1,18.29,1.79l3.52.59L804.84,64Q790.77,62.36,785,62.36Z"/><path class="cls-1" d="M819.31,121.64V53.85h11.16v67.79Z"/><path class="cls-1" d="M874.38,95.71V86H894v34.43a87.35,87.35,0,0,1-11,1.49q-8.29.8-12,.79-15.68,0-21.6-8.51t-5.93-26.67q0-18.17,6.08-26.47t21-8.32a114,114,0,0,1,19.9,2l3.51.7-.4,8.71a169.77,169.77,0,0,0-21.8-1.59q-9.64,0-13.22,5.35T855,87.7q0,14.44,3.36,19.94T872,113.13a49.14,49.14,0,0,0,10.95-.89V95.71Z"/><path class="cls-1" d="M907.94,121.64V53.85h19.5l20.9,58.09h1.5V53.85H961v67.79H941.91L920.5,63.45h-1.4v58.19Z"/><path class="cls-1" d="M222,140.09v4.44H202.37v13.39h15.91v4.27H202.37v13.75H222v4.45H196.8v-40.3Z"/><path class="cls-1" d="M233.94,140.27a2.68,2.68,0,0,1,.81.75l23.7,30.37c-.05-.49-.09-1-.11-1.42s0-.91,0-1.34V140.09h4.86v40.3h-2.8a2.39,2.39,0,0,1-1.1-.23,2.61,2.61,0,0,1-.87-.76l-23.68-30.34q.06.7.09,1.38t0,1.23v28.72H230v-40.3h2.86A2.58,2.58,0,0,1,233.94,140.27Z"/><path class="cls-1" d="M291.41,176.42a28.36,28.36,0,0,0,3-.15,18.62,18.62,0,0,0,2.61-.47,17.49,17.49,0,0,0,2.32-.74c.72-.29,1.44-.62,2.17-1v-8.89h-6.34a1.17,1.17,0,0,1-.87-.31,1,1,0,0,1-.33-.76V161h12.56v15.47a22.22,22.22,0,0,1-6.78,3.28,27.14,27.14,0,0,1-4.07.81,38.34,38.34,0,0,1-4.71.27,21.45,21.45,0,0,1-8.17-1.51,18.82,18.82,0,0,1-6.39-4.21,19.19,19.19,0,0,1-4.19-6.52,22.51,22.51,0,0,1-1.5-8.35,23.13,23.13,0,0,1,1.47-8.41,18.45,18.45,0,0,1,4.2-6.51,18.75,18.75,0,0,1,6.6-4.2,23.81,23.81,0,0,1,8.66-1.49,26.67,26.67,0,0,1,4.52.35,21.05,21.05,0,0,1,3.87,1,18.58,18.58,0,0,1,3.29,1.6,19.76,19.76,0,0,1,2.83,2.13l-1.57,2.47a1.44,1.44,0,0,1-1.26.76,2,2,0,0,1-1-.31c-.47-.26-1-.58-1.59-1a13.52,13.52,0,0,0-2.16-1.09,18,18,0,0,0-3-.88,19.59,19.59,0,0,0-4.1-.37,16.8,16.8,0,0,0-6.25,1.11,13.15,13.15,0,0,0-4.77,3.18,14.19,14.19,0,0,0-3,5,21.45,21.45,0,0,0,0,13.41,14.35,14.35,0,0,0,3.09,5.08,13.6,13.6,0,0,0,4.74,3.18A16.22,16.22,0,0,0,291.41,176.42Z"/><path class="cls-1" d="M321.65,180.39h-5.54v-40.3h5.54Z"/><path class="cls-1" d="M336.57,140.27a2.68,2.68,0,0,1,.81.75l23.71,30.37c-.06-.49-.1-1-.12-1.42s0-.91,0-1.34V140.09h4.86v40.3H363a2.39,2.39,0,0,1-1.1-.23,2.61,2.61,0,0,1-.87-.76l-23.67-30.34c0,.47.06.93.08,1.38s0,.86,0,1.23v28.72h-4.85v-40.3h2.85A2.55,2.55,0,0,1,336.57,140.27Z"/><path class="cls-1" d="M401,140.09v4.44H381.36v13.39h15.91v4.27H381.36v13.75H401v4.45H375.79v-40.3Z"/><path class="cls-1" d="M434.19,140.09v4.44H414.54v13.39h15.91v4.27H414.54v13.75h19.65v4.45H409v-40.3Z"/><path class="cls-1" d="M448.24,163.57v16.82h-5.51v-40.3h11.56a25.56,25.56,0,0,1,6.72.77,12.81,12.81,0,0,1,4.66,2.24,8.91,8.91,0,0,1,2.73,3.53,11.61,11.61,0,0,1,.89,4.62,11.3,11.3,0,0,1-.69,4,10.74,10.74,0,0,1-2,3.34,12.24,12.24,0,0,1-3.17,2.52,16.13,16.13,0,0,1-4.24,1.57,5.79,5.79,0,0,1,1.82,1.72l11.94,16h-4.91a2.44,2.44,0,0,1-2.23-1.16l-10.62-14.39a3.08,3.08,0,0,0-1.06-1,3.79,3.79,0,0,0-1.71-.3Zm0-4H454a14.46,14.46,0,0,0,4.27-.58,8.94,8.94,0,0,0,3.08-1.63,6.87,6.87,0,0,0,1.87-2.52,8.09,8.09,0,0,0,.63-3.23,6.38,6.38,0,0,0-2.41-5.43q-2.42-1.83-7.19-1.83h-6.05Z"/><path class="cls-1" d="M485.51,180.39H480v-40.3h5.54Z"/><path class="cls-1" d="M500.43,140.27a2.8,2.8,0,0,1,.81.75l23.7,30.37c-.05-.49-.09-1-.11-1.42s0-.91,0-1.34V140.09h4.86v40.3h-2.8a2.39,2.39,0,0,1-1.1-.23,2.61,2.61,0,0,1-.87-.76l-23.68-30.34q.06.7.09,1.38t0,1.23v28.72h-4.86v-40.3h2.86A2.58,2.58,0,0,1,500.43,140.27Z"/><path class="cls-1" d="M557.9,176.42a28.5,28.5,0,0,0,3-.15,18.62,18.62,0,0,0,2.61-.47,16.89,16.89,0,0,0,2.31-.74,22.16,22.16,0,0,0,2.17-1v-8.89H561.7a1.21,1.21,0,0,1-.88-.31,1,1,0,0,1-.32-.76V161h12.56v15.47a22.81,22.81,0,0,1-3.21,1.91,23.37,23.37,0,0,1-3.57,1.37,27.14,27.14,0,0,1-4.07.81,38.34,38.34,0,0,1-4.71.27,21.41,21.41,0,0,1-8.17-1.51,18.87,18.87,0,0,1-6.4-4.21,19.17,19.17,0,0,1-4.18-6.52,22.51,22.51,0,0,1-1.5-8.35,23.13,23.13,0,0,1,1.47-8.41,18.45,18.45,0,0,1,4.2-6.51,18.75,18.75,0,0,1,6.6-4.2,23.77,23.77,0,0,1,8.66-1.49,26.55,26.55,0,0,1,4.51.35,21.05,21.05,0,0,1,3.87,1,18.68,18.68,0,0,1,3.3,1.6,20.34,20.34,0,0,1,2.83,2.13l-1.57,2.47a1.44,1.44,0,0,1-1.26.76,2,2,0,0,1-1-.31c-.47-.26-1-.58-1.6-1a13.82,13.82,0,0,0-2.15-1.09,18,18,0,0,0-3-.88,19.59,19.59,0,0,0-4.1-.37,16.8,16.8,0,0,0-6.25,1.11,13.15,13.15,0,0,0-4.77,3.18,14,14,0,0,0-3,5,19.47,19.47,0,0,0-1.06,6.59,19.79,19.79,0,0,0,1.1,6.82,14.52,14.52,0,0,0,3.1,5.08,13.51,13.51,0,0,0,4.74,3.18A16.22,16.22,0,0,0,557.9,176.42Z"/><path class="cls-1" d="M628.06,160.25a22.38,22.38,0,0,1-1.46,8.24,18.18,18.18,0,0,1-4.11,6.36,18.41,18.41,0,0,1-6.37,4.09,22.31,22.31,0,0,1-8.22,1.45H592.59v-40.3H607.9a22.52,22.52,0,0,1,8.22,1.44A18,18,0,0,1,626.6,152,22.42,22.42,0,0,1,628.06,160.25Zm-5.68,0a20.12,20.12,0,0,0-1-6.64,14,14,0,0,0-2.91-4.94,12.44,12.44,0,0,0-4.57-3.1,16.06,16.06,0,0,0-6-1.07h-9.74V176h9.74a15.86,15.86,0,0,0,6-1.07,12.4,12.4,0,0,0,4.57-3.08,13.92,13.92,0,0,0,2.91-4.93A20.08,20.08,0,0,0,622.38,160.25Z"/><path class="cls-1" d="M660.81,140.09v4.44H641.17v13.39h15.9v4.27h-15.9v13.75h19.64v4.45H635.6v-40.3Z"/><path class="cls-1" d="M689.74,146.39a2.16,2.16,0,0,1-.54.63,1.22,1.22,0,0,1-.74.21,2,2,0,0,1-1.13-.48,16.79,16.79,0,0,0-1.63-1.05,13.2,13.2,0,0,0-2.37-1.06,10.29,10.29,0,0,0-3.35-.47,10,10,0,0,0-3.29.49,6.83,6.83,0,0,0-2.38,1.33,5.64,5.64,0,0,0-1.45,2,6.24,6.24,0,0,0-.48,2.46,4.54,4.54,0,0,0,.84,2.8,7.31,7.31,0,0,0,2.23,1.89,17.15,17.15,0,0,0,3.14,1.37l3.6,1.19c1.23.42,2.43.88,3.6,1.39a12.89,12.89,0,0,1,3.14,2,9.07,9.07,0,0,1,2.23,2.9,9.51,9.51,0,0,1,.84,4.21,13.43,13.43,0,0,1-.92,5,11.46,11.46,0,0,1-2.67,4,12.26,12.26,0,0,1-4.31,2.7,16,16,0,0,1-5.81,1,18.09,18.09,0,0,1-7.24-1.42,17,17,0,0,1-5.58-3.84l1.6-2.59a2.27,2.27,0,0,1,.55-.52,1.35,1.35,0,0,1,.73-.21,2.28,2.28,0,0,1,1.37.63,21,21,0,0,0,1.93,1.39,14.31,14.31,0,0,0,2.8,1.4,11.21,11.21,0,0,0,4,.63,10.79,10.79,0,0,0,3.51-.53,7.58,7.58,0,0,0,2.62-1.51,6.49,6.49,0,0,0,1.64-2.32,7.65,7.65,0,0,0,.57-3,5,5,0,0,0-.84-3,6.94,6.94,0,0,0-2.22-2,15.41,15.41,0,0,0-3.12-1.33l-3.6-1.13a34.48,34.48,0,0,1-3.6-1.34,11.82,11.82,0,0,1-3.13-2,9.13,9.13,0,0,1-2.21-3A10.93,10.93,0,0,1,670.52,143a12,12,0,0,1,4-2.48,14.85,14.85,0,0,1,5.41-.92,17.37,17.37,0,0,1,6.25,1.07,14.35,14.35,0,0,1,4.94,3.09Z"/><path class="cls-1" d="M705.62,180.39h-5.54v-40.3h5.54Z"/><path class="cls-1" d="M734.83,176.42a28.23,28.23,0,0,0,3-.15,18.51,18.51,0,0,0,2.62-.47,17.35,17.35,0,0,0,2.31-.74,23.29,23.29,0,0,0,2.17-1v-8.89h-6.34a1.2,1.2,0,0,1-.87-.31,1,1,0,0,1-.33-.76V161H750v15.47a22.36,22.36,0,0,1-3.22,1.91,22.59,22.59,0,0,1-3.57,1.37,26.89,26.89,0,0,1-4.07.81,38.1,38.1,0,0,1-4.71.27,21.36,21.36,0,0,1-8.16-1.51,18.87,18.87,0,0,1-6.4-4.21,19.19,19.19,0,0,1-4.19-6.52,22.72,22.72,0,0,1-1.49-8.35,23.13,23.13,0,0,1,1.47-8.41,18.15,18.15,0,0,1,10.79-10.71,23.83,23.83,0,0,1,8.67-1.49,26.55,26.55,0,0,1,4.51.35,21.05,21.05,0,0,1,3.87,1,18.68,18.68,0,0,1,3.3,1.6,19.67,19.67,0,0,1,2.82,2.13l-1.57,2.47a1.43,1.43,0,0,1-1.25.76,2,2,0,0,1-1-.31c-.48-.26-1-.58-1.6-1a13.52,13.52,0,0,0-2.16-1.09,17.47,17.47,0,0,0-3-.88,19.49,19.49,0,0,0-4.09-.37,16.86,16.86,0,0,0-6.26,1.11,13.32,13.32,0,0,0-4.77,3.18,14,14,0,0,0-3,5,19.22,19.22,0,0,0-1.06,6.59,19.79,19.79,0,0,0,1.1,6.82,14.23,14.23,0,0,0,3.1,5.08,13.42,13.42,0,0,0,4.74,3.18A16.16,16.16,0,0,0,734.83,176.42Z"/><path class="cls-1" d="M762.46,140.27a2.68,2.68,0,0,1,.81.75L787,171.39c-.06-.49-.1-1-.12-1.42s0-.91,0-1.34V140.09h4.86v40.3h-2.8a2.42,2.42,0,0,1-1.1-.23,2.61,2.61,0,0,1-.87-.76l-23.67-30.34c0,.47.06.93.08,1.38s0,.86,0,1.23v28.72h-4.85v-40.3h2.85A2.55,2.55,0,0,1,762.46,140.27Z"/><path class="cls-1" d="M840.58,140.09v4.58H827.35v35.72h-5.54V144.67H808.54v-4.58Z"/><path class="cls-1" d="M871.62,140.09v4.44H852v13.39h15.91v4.27H852v13.75h19.65v4.45H846.4v-40.3Z"/><path class="cls-1" d="M913.25,180.39H909a1.81,1.81,0,0,1-1.2-.37,2.32,2.32,0,0,1-.69-.93l-3.82-9.73H884.9l-3.83,9.73a2.1,2.1,0,0,1-.69.9,1.79,1.79,0,0,1-1.2.4H874.9l16.36-40.3h5.63Zm-26.81-15h15.28L895.29,149a30,30,0,0,1-1.23-3.8c-.21.77-.41,1.48-.61,2.13s-.4,1.21-.59,1.7Z"/><path class="cls-1" d="M939.25,167.24c.2.5.4,1,.59,1.51.19-.53.39-1,.6-1.51s.45-1,.71-1.45L955,141a1.62,1.62,0,0,1,.77-.79,3.48,3.48,0,0,1,1.15-.14H961v40.3h-4.86V150.77q0-.59,0-1.26t.09-1.38l-14,25.2a2.21,2.21,0,0,1-2,1.26h-.8a2.21,2.21,0,0,1-2-1.26L923.1,148.05c.06.48.1,1,.13,1.43s0,.9,0,1.29v29.62h-4.86v-40.3h4.08a3.48,3.48,0,0,1,1.15.14,1.62,1.62,0,0,1,.77.79l14.13,24.8A9.86,9.86,0,0,1,939.25,167.24Z"/><path class="cls-1" d="M88.27,136.31h0c-1.76,1.27-3.65,3.17-6.12,4.34a88.5,88.5,0,0,0,23.16,6.59c-13-1.09-23.86-3.35-31.61-6.13a26.72,26.72,0,0,0,4.09-2.49,22.52,22.52,0,0,0,4.1-3.71c-11.82-2.5-16.51-5.34-22.46-9,4.68,4.23,8.08,7.21,14.52,10.75a49.41,49.41,0,0,1-6,2.89c-2.66,1.14-5.15,2.12-5.15,2.12v0a134.81,134.81,0,0,0,56,12.43h.08c10.79,0,14.33-4.75,16.64-8.06a9.22,9.22,0,0,1,2.55-2.89,12.32,12.32,0,0,1,5.45-.9,61.61,61.61,0,0,1,9.61,1c-7.55-2.66-6.64-12.78-18.35-12.78h-.17a46.37,46.37,0,0,0-8.43,1.14,14.51,14.51,0,0,1-2.91.28c-12.62,0-30.78-14-43.06-26.09a1.14,1.14,0,0,1-.11-.11A274,274,0,0,1,48,66.52c1.49,13.29,4.89,29,12.39,41.11C66.23,117,75.21,126.78,88.27,136.31Z"/><path class="cls-1" d="M187.25,166.86a314.19,314.19,0,0,1-48.2-19.05l-.15.2-.16.24a21.37,21.37,0,0,1-6.25,6.32,20.66,20.66,0,0,1-6.23,2.58,141.22,141.22,0,0,0,51.28,10.09C180.75,167.24,184,167.12,187.25,166.86Z"/><path class="cls-1" d="M57.57,110.43c-.15-.25-.31-.5-.47-.75a68.32,68.32,0,0,1-4.44-8.49v79.65H180.84v-9.75c-1.1,0-2.2,0-3.3,0h-1.61v4.81H57.57"/><path class="cls-1" d="M57.57,73.24V57.57H175.93V159.06c1.62.56,3.25,1.12,4.91,1.67V52.66H52.66V66.4C54.3,68.74,55.93,71,57.57,73.24Z"/><rect class="cls-2" width="1013.66" height="231.92"/></g></svg>