<svg xmlns="http://www.w3.org/2000/svg" viewBox="0 0 803.85 337.35"><defs><style>.cls-1{fill:#11283d;}.cls-2{fill:none;}</style></defs><g id="Layer_3" data-name="Layer 3"><path class="cls-1" d="M377.75,180.77a34.34,34.34,0,0,0,13.16-2.39,26.74,26.74,0,0,0,9.8-6.85,30.27,30.27,0,0,0,6.12-10.89A46.66,46.66,0,0,0,408.94,146V54.36h36.61V146a70.37,70.37,0,0,1-4.71,26.13,58.44,58.44,0,0,1-13.49,20.5A61,61,0,0,1,406,206.05a86.31,86.31,0,0,1-56.65,0A61,61,0,0,1,328,192.66a57.89,57.89,0,0,1-13.43-20.5A71.18,71.18,0,0,1,310,146V54.36h36.6v91.57a46.59,46.59,0,0,0,2.12,14.6,30.37,30.37,0,0,0,6.12,10.94,26.34,26.34,0,0,0,9.8,6.91A34.31,34.31,0,0,0,377.75,180.77Z"/><path class="cls-1" d="M476.53,209.13V54.36h58.05q16.35,0,27.83,3t18.74,8.39A31.85,31.85,0,0,1,591.71,78.9,43.79,43.79,0,0,1,595,96.21a33.37,33.37,0,0,1-1.52,10,29.13,29.13,0,0,1-4.77,9.08,34.91,34.91,0,0,1-8.34,7.71,54.22,54.22,0,0,1-12.23,6q15.58,3.72,23.07,12.05t7.47,21.41a43.5,43.5,0,0,1-3.9,18.37,42.1,42.1,0,0,1-11.43,14.82,54.57,54.57,0,0,1-18.57,9.88,82.36,82.36,0,0,1-25.24,3.56Zm36.6-89.65H532.2a64.73,64.73,0,0,0,10.94-.85,23,23,0,0,0,8.28-3,13.65,13.65,0,0,0,5.2-5.84,21.56,21.56,0,0,0,1.79-9.35A25.75,25.75,0,0,0,557,91.28a13.17,13.17,0,0,0-4.33-5.9,18.41,18.41,0,0,0-7.42-3.19,52.54,52.54,0,0,0-10.67-1H513.13Zm0,24V182h25.78a33,33,0,0,0,11.86-1.8,18.83,18.83,0,0,0,7.2-4.68,15.5,15.5,0,0,0,3.58-6.48,28,28,0,0,0,1-7.33,24.31,24.31,0,0,0-1.13-7.65,12.69,12.69,0,0,0-3.9-5.73,19.17,19.17,0,0,0-7.31-3.61,43.43,43.43,0,0,0-11.49-1.28Z"/><path class="cls-1" d="M731.81,169.08a7.46,7.46,0,0,1,2.6.48,7,7,0,0,1,2.49,1.65l14.51,15a60,60,0,0,1-23.88,18.43q-14.35,6.22-33.95,6.22-18,0-32.23-6a69.89,69.89,0,0,1-24.15-16.57A72.79,72.79,0,0,1,622,163.19a91.19,91.19,0,0,1-5.3-31.5,81.7,81.7,0,0,1,6.06-31.81,74.14,74.14,0,0,1,17-25,76.59,76.59,0,0,1,26-16.35,92.29,92.29,0,0,1,33.47-5.85,87.34,87.34,0,0,1,16.73,1.54,83.71,83.71,0,0,1,14.68,4.25,70.08,70.08,0,0,1,12.56,6.48,60.69,60.69,0,0,1,10.18,8.34L741,89.52a15.46,15.46,0,0,1-2.82,2.71,7.39,7.39,0,0,1-4.55,1.22A8.18,8.18,0,0,1,730,92.6a37.57,37.57,0,0,1-3.68-2.07L722,87.88a33.6,33.6,0,0,0-5.53-2.66A47.19,47.19,0,0,0,709,83.15a51.67,51.67,0,0,0-10-.85,46.58,46.58,0,0,0-18.19,3.45,40,40,0,0,0-14.14,9.88,45.7,45.7,0,0,0-9.2,15.56,59.81,59.81,0,0,0-3.31,20.5,62.42,62.42,0,0,0,3.31,21.14,46,46,0,0,0,9,15.56A38,38,0,0,0,679.71,178,40.29,40.29,0,0,0,696,181.3a79.08,79.08,0,0,0,9.1-.48,38.1,38.1,0,0,0,7.63-1.65,35.59,35.59,0,0,0,6.72-3,44.58,44.58,0,0,0,6.44-4.62,12.92,12.92,0,0,1,2.82-1.76A7.51,7.51,0,0,1,731.81,169.08Z"/><path class="cls-1" d="M309.68,283.84l13.25-52.66h17.32l13.33,52.66H344.8l-2.9-11.3H321.28l-2.9,11.3Zm20-45.51L323,265h17.16l-6.58-26.68Z"/><path class="cls-1" d="M361.26,283.84V231.18h33.87v7.46H370v14.91h20.46v7.38H370v15.38h25.17v7.53Z"/><path class="cls-1" d="M413.31,265.08v18.76h-8.7V231.18H425q18.19,0,18.19,16.76,0,11.22-8.78,15.22l8.86,20.68H433.7l-7.77-18.76ZM434.24,248q0-9.47-9.25-9.46H413.31V257.7h11.84q4.71,0,6.9-2.65A10.69,10.69,0,0,0,434.24,248Z"/><path class="cls-1" d="M489.55,278.23q-4.82,6.45-17,6.46t-17-6.5q-4.86-6.49-4.86-20.41t4.9-20.68q4.89-6.76,17-6.77t16.93,6.73q4.86,6.74,4.86,20.72T489.55,278.23Zm-27.16-5.54q2.66,4.55,10.19,4.54t10.15-4.46q2.63-4.45,2.63-14.95t-2.71-15.26q-2.7-4.77-10.07-4.77c-4.91,0-8.29,1.59-10.11,4.77s-2.75,8.24-2.75,15.18S460.61,269.67,462.39,272.69Z"/><path class="cls-1" d="M523.06,283.84H504.48V231.18h18.58q12.39,0,16.94,6.15t4.54,19.3a60.8,60.8,0,0,1-.9,11.34,25.6,25.6,0,0,1-3.17,8.41Q536,283.85,523.06,283.84Zm12.47-27.21q0-9.54-2.43-13.77t-10-4.22h-9.87v37.67h9.87q7.77,0,10.35-5.61a22.35,22.35,0,0,0,1.69-6.08A63.32,63.32,0,0,0,535.53,256.63Z"/><path class="cls-1" d="M554.73,283.84V231.18H588.6v7.46H563.44v14.91H583.9v7.38H563.44v15.38H588.6v7.53Z"/><path class="cls-1" d="M613.84,237.79q-10,0-10,6.84,0,3.54,2.35,5t10.38,3.69q8,2.19,11.33,5.23t3.29,9.57q0,8.29-4.82,12.41t-13.13,4.12a79.89,79.89,0,0,1-14.74-1.54l-2.82-.54.86-6.84a135.35,135.35,0,0,0,16.15,1.38q9.72,0,9.72-8.45a5.63,5.63,0,0,0-2.19-4.89q-2.19-1.57-9.88-3.45T599,255.17q-3.76-3.31-3.77-10.46t4.75-10.8q4.74-3.66,13.13-3.65a87.84,87.84,0,0,1,14.26,1.38l2.75.46-.71,6.92Q618.4,237.79,613.84,237.79Z"/><path class="cls-1" d="M640.65,283.84V231.18h8.7v52.66Z"/><path class="cls-1" d="M683.61,263.7v-7.54H698.9v26.76a69.8,69.8,0,0,1-8.59,1.15q-6.46.62-9.36.62-12.24,0-16.86-6.61t-4.62-20.72q0-14.12,4.74-20.57t16.42-6.46a89.79,89.79,0,0,1,15.52,1.54l2.75.54-.32,6.76a133.55,133.55,0,0,0-17-1.23q-7.52,0-10.31,4.16t-2.78,15.37q0,11.23,2.63,15.49t10.62,4.27a38.89,38.89,0,0,0,8.54-.69V263.7Z"/><path class="cls-1" d="M709.79,283.84V231.18H725l16.31,45.13h1.17V231.18h8.71v52.66h-14.9l-16.7-45.2H718.5v45.2Z"/><path class="cls-1" d="M117.12,204.08h0c-3.19,2.31-6.61,5.74-11.08,7.86A159.58,159.58,0,0,0,148,223.86c-23.5-2-43.2-6.05-57.22-11.09a47.85,47.85,0,0,0,7.39-4.51c3.19-2.45,6.41-5.15,7.43-6.71-21.4-4.53-29.89-9.66-40.66-16.38,8.48,7.65,14.63,13.06,26.28,19.46-1.76,1.21-6.44,3.33-10.85,5.22C75.52,211.92,71,213.7,71,213.7l0,0c26.75,12.16,61,22.5,101.45,22.5h.13c19.53,0,25.94-8.58,30.13-14.58,1.66-2.37,3-4.34,4.6-5.23,2.25-1.22,5.93-1.64,9.88-1.64a109.88,109.88,0,0,1,17.39,1.75c-13.66-4.82-12-23.13-33.22-23.13h-.3a84.4,84.4,0,0,0-15.25,2.05,26.82,26.82,0,0,1-5.29.5c-22.84,0-55.71-25.31-78-47.22l-.19-.2C81,127.21,62.07,103.65,44.25,77.75c2.71,24.06,8.86,52.53,22.43,74.42C77.22,169.17,93.48,186.82,117.12,204.08Z"/><path class="cls-1" d="M296.29,259.39c-32.62-10.08-61.45-21.56-87.25-34.5l-.26.38-.3.42a39,39,0,0,1-11.32,11.45,37.57,37.57,0,0,1-11.26,4.68c28.28,11,59.79,18.26,92.82,18.26Q287.43,260.08,296.29,259.39Z"/><path class="cls-1" d="M61.55,157.23l-.85-1.35a125.35,125.35,0,0,1-8-15.38V284.69h232V267c-2,.06-4,.08-6,.08l-2.92,0v8.71H61.55"/><path class="cls-1" d="M61.55,89.92V61.55H275.8V245.26q4.4,1.53,8.89,3V52.66h-232V77.53Q57.1,83.88,61.55,89.92Z"/><rect class="cls-2" width="803.85" height="337.35"/></g></svg>