<svg xmlns="http://www.w3.org/2000/svg" viewBox="0 0 1080 1080"><defs><style>.cls-1{fill:none;}.cls-2{fill:#fff;}</style></defs><g id="Layer_3" data-name="Layer 3"><rect class="cls-1" width="1080" height="1080"/><path class="cls-2" d="M995.81,864C881.29,828.62,779.9,788.42,689,743.18l-1.38,2-1.06,1.51C677,760.35,665.05,776,644.57,789a135.67,135.67,0,0,1-34.66,15.49c98.86,37.61,208.42,62,323.14,62Q964.18,866.46,995.81,864Z"/><path class="cls-2" d="M355.86,666.44h0c-11.39,8.24-23.63,20.49-39.59,28.06C361.91,714.38,412,729.65,466,737.11c-83.92-7-154.29-21.61-204.36-39.61,2.59-1.43,14.44-7,26.39-16.13,11.4-8.74,22.89-18.37,26.55-23.94-76.45-16.19-106.79-34.53-145.24-58.52,30.28,27.34,52.25,46.63,93.87,69.51-6.29,4.3-23,11.89-38.76,18.64-17.22,7.38-33.29,13.76-33.29,13.76l-.07.15c95.56,43.44,218,80.36,362.34,80.36H554c69.75-.12,92.66-30.66,107.62-52.08,5.92-8.47,10.6-15.51,16.44-18.7,8-4.36,21.17-5.83,35.28-5.83,28.57,0,61,6,62.11,6.23-48.8-17.2-42.89-82.61-118.64-82.61h-1.09c-15.14.13-33.73,3.06-54.48,7.33a95.2,95.2,0,0,1-18.87,1.8c-81.59,0-199-90.43-278.41-168.69l-.7-.69c-76.32-76.21-144-160.36-207.62-252.85,9.67,85.93,31.63,187.63,80.11,265.8C213.36,541.76,271.44,604.81,355.86,666.44Z"/><path class="cls-2" d="M925.26,896.83v28.43H154.74V504.81q-2.49-3.87-4.9-7.73a431,431,0,0,1-21.56-39.37v494H951.72V896.67q-9.35.21-18.67.22C930.45,896.89,927.86,896.85,925.26,896.83Z"/><path class="cls-2" d="M154.74,246.14v-91.4H925.26V808.87q13.11,4.56,26.46,9V128.28H128.28V209Q141.5,228,154.74,246.14Z"/></g></svg>