<svg width="24" height="18" viewBox="0 0 24 18" fill="none" xmlns="http://www.w3.org/2000/svg">
<path d="M20.3477 1.85501C18.8215 1.17948 17.2006 0.687149 15.5087 0.412354C15.2957 0.7673 15.059 1.24819 14.8934 1.62603C13.0939 1.37413 11.3073 1.37413 9.53261 1.62603C9.36696 1.24819 9.11849 0.7673 8.91735 0.412354C7.21365 0.687149 5.59275 1.17948 4.07714 1.85501C1.01282 6.22881 0.184618 10.4995 0.598722 14.713C2.63371 16.1443 4.59775 17.0144 6.52745 17.587C7.00071 16.9687 7.42664 16.3045 7.79342 15.6061C7.09536 15.3542 6.4328 15.0451 5.79391 14.6787C5.95955 14.5643 6.1252 14.4383 6.27901 14.3123C10.136 16.0184 14.3137 16.0184 18.1233 14.3123C18.289 14.4383 18.4429 14.5643 18.6085 14.6787C17.9696 15.0451 17.307 15.3542 16.609 15.6061C16.9758 16.3045 17.4017 16.9687 17.8749 17.587C19.8034 17.0144 21.7793 16.1443 23.8037 14.713C24.3124 9.83555 22.998 5.59912 20.3477 1.85501ZM8.32582 12.114C7.16633 12.114 6.21982 11.095 6.21982 9.84699C6.21982 8.59892 7.14267 7.5799 8.32582 7.5799C9.49711 7.5799 10.4554 8.59892 10.4318 9.84699C10.4318 11.095 9.49711 12.114 8.32582 12.114ZM16.1003 12.114C14.9407 12.114 13.993 11.095 13.993 9.84699C13.993 8.59892 14.9171 7.5799 16.1003 7.5799C17.2716 7.5799 18.2299 8.59892 18.2062 9.84699C18.2062 11.095 17.2834 12.114 16.1003 12.114Z" fill="#11283D"/>
</svg>
