<svg width="71" height="70" viewBox="0 0 71 70" fill="none" xmlns="http://www.w3.org/2000/svg">
<circle cx="35.6078" cy="34.7689" r="34.7689" fill="#003565"/>
<path d="M32.8381 43.4478H34.3357V35.9351H37.2524V43.4478H38.7499C38.9424 41.6423 39.8367 40.152 41.2885 38.5234C41.4519 38.3401 42.5006 37.2219 42.625 37.0622C43.8613 35.474 44.544 33.5085 44.544 31.4276C44.544 26.4486 40.6265 22.4124 35.794 22.4124C30.9616 22.4124 27.044 26.4486 27.044 31.4276C27.044 33.5075 27.7262 35.4719 28.9612 37.0596C29.0858 37.2198 30.1369 38.341 30.2984 38.5222C31.7511 40.1518 32.6455 41.6423 32.8381 43.4478ZM32.8774 46.4528V47.9553H38.7107V46.4528H32.8774ZM26.6852 38.939C25.0847 36.8813 24.1274 34.2696 24.1274 31.4276C24.1274 24.789 29.3507 19.4073 35.794 19.4073C42.2374 19.4073 47.4607 24.789 47.4607 31.4276C47.4607 34.2711 46.5023 36.884 44.9003 38.9423C43.9957 40.1043 41.6274 41.9452 41.6274 44.199V47.9553C41.6274 49.615 40.3216 50.9604 38.7107 50.9604H32.8774C31.2666 50.9604 29.9607 49.615 29.9607 47.9553V44.199C29.9607 41.9452 27.5903 40.1025 26.6852 38.939Z" fill="white"/>
</svg>
