<svg width="20" height="20" viewBox="0 0 20 20" fill="none" xmlns="http://www.w3.org/2000/svg">
<path d="M16.6125 16.867H13.7249V12.3421C13.7249 11.2631 13.703 9.87463 12.2201 9.87463C10.7146 9.87463 10.4846 11.0487 10.4846 12.2625V16.867H7.59698V7.56226H10.3709V8.83051H10.4082C10.7958 8.09926 11.7383 7.32744 13.1464 7.32744C16.0722 7.32744 16.6134 9.25312 16.6134 11.7596L16.6125 16.867ZM4.33564 6.28907C3.40614 6.28907 2.65945 5.53669 2.65945 4.61126C2.65945 3.68663 3.40695 2.93507 4.33564 2.93507C5.26189 2.93507 6.01264 3.68663 6.01264 4.61126C6.01264 5.53669 5.26108 6.28907 4.33564 6.28907ZM5.78352 16.867H2.88777V7.56226H5.78352V16.867ZM18.0571 0.249756H1.43827C0.642829 0.249756 -0.000671387 0.878631 -0.000671387 1.65457V18.345C-0.000671387 19.1216 0.642829 19.7498 1.43827 19.7498H18.0547C18.8494 19.7498 19.4993 19.1216 19.4993 18.345V1.65457C19.4993 0.878631 18.8494 0.249756 18.0547 0.249756H18.0571Z" fill="#11283D"/>
</svg>
