<?xml version="1.0" encoding="utf-8"?>
<!-- Generator: Adobe Illustrator 23.0.1, SVG Export Plug-In . SVG Version: 6.00 Build 0)  -->
<svg version="1.1" id="Layer_1" xmlns="http://www.w3.org/2000/svg" xmlns:xlink="http://www.w3.org/1999/xlink" x="0px" y="0px"
	 viewBox="0 0 179.3 50" style="enable-background:new 0 0 179.3 50;" xml:space="preserve">
<style type="text/css">
	.st0{fill-rule:evenodd;clip-rule:evenodd;fill:#020000;}
</style>
<g>
	<path class="st0" d="M35.9,10.1c-0.1,0.4-0.4,1.7-0.5,2c-0.4,0-10.9,0-10.9,0L24,14.3c0,0,10.4,0,10.9,0c-0.1,0.4-0.4,1.8-0.5,2.2
		c-0.4,0-10.9,0-10.9,0s-0.9,4-0.9,4.4c-0.3,0-1.8,0-2.3,0c0.1-0.6,2.2-10.5,2.3-10.8C23,10.1,35.3,10.1,35.9,10.1L35.9,10.1
		L35.9,10.1z"/>
	<path class="st0" d="M39.5,10.1c-0.1,0.5-1.8,8.7-1.8,8.7s8.6,0,9.2,0c-0.1,0.4-0.4,1.8-0.5,2.2c-0.4,0-10.9,0-11.5,0
		c0.1-0.6,2.2-10.5,2.3-10.8C37.6,10.1,39.1,10.1,39.5,10.1L39.5,10.1L39.5,10.1z"/>
	<path class="st0" d="M77.3,20.9c-1,0-3.9,0-4,0c-0.1-0.1-6.1-4.6-6.1-4.6s-0.9,4.2-1,4.6c-0.3,0-1.8,0-2.2,0
		c0.1-0.6,2.2-10.5,2.3-10.8c0.3,0,1.8,0,2.2,0c-0.1,0.5-0.9,4.5-0.9,4.5s8.1-4.4,8.2-4.5c0.1,0,2.5,0,3.7,0
		c-1.4,0.8-9.7,5.3-9.7,5.3S76.3,20.1,77.3,20.9L77.3,20.9L77.3,20.9z"/>
	<path class="st0" d="M82.1,12.1l-0.5,2.4c0,0,11,0,11.6,0c-0.1,0.4-0.4,1.7-0.4,2c-0.4,0-11.6,0-11.6,0l-0.5,2.4c0,0,11,0,11.6,0
		c-0.1,0.4-0.4,1.7-0.5,2c-0.4,0-13.1,0-13.7,0c0.1-0.6,2.2-10.5,2.3-10.8c0.4,0,13.2,0,13.7,0c-0.1,0.4-0.3,1.7-0.4,2
		C93.3,12.1,82.1,12.1,82.1,12.1L82.1,12.1L82.1,12.1z"/>
	<path class="st0" d="M64.9,10.1c-0.1,0.5-1.8,8.3-1.8,8.3c0,0.1-0.4,2.2-2.5,2.5c-0.1,0-11.2,0-11.3,0c-0.6-0.1-1-0.3-1.2-0.7
		c-0.2-0.3-0.3-0.7-0.3-1s0.1-0.7,0.1-0.7l0,0c0,0,1.8-8.1,1.8-8.5c0.3,0,1.8,0,2.3,0c-0.1,0.5-1.9,8.8-1.9,8.8h10.6
		c0,0,1.8-8.5,1.9-8.8C62.9,10.1,64.4,10.1,64.9,10.1L64.9,10.1L64.9,10.1z"/>
	<path class="st0" d="M71.1,35.9h2l1.1-5.6c0.3-1.4,1.5-4.1,4.1-4.1c1.2,0,2,0.9,2,2c0,0.3-0.1,0.7-0.1,1l-1.4,6.6h2L82,30
		c0.1-0.6,0.3-1.4,0.3-2c0-2.4-1.5-3.5-3.7-3.5c-1.9,0-3.1,1-3.7,2h-0.1l0.4-1.7h-1.9C73.2,25.5,73,26,73,26.4L71.1,35.9L71.1,35.9
		L71.1,35.9z"/>
	<path class="st0" d="M91.7,33.8c-1,0.5-2.1,0.7-3.1,0.7c-2,0-3.3-0.7-3.3-3c0-0.2,0-0.5,0.1-0.7H93c0.1-0.7,0.2-1.3,0.2-2
		c0-2.6-1.5-4.2-4.1-4.2c-3.9,0-6,3.5-6,6.6c0,3.9,2.4,5,5,5c1.1,0,2.2-0.2,3.3-0.5L91.7,33.8L91.7,33.8L91.7,33.8z M85.5,29.3
		c0.5-1.6,1.7-3.1,3.3-3.1c1.6,0,2.4,0.9,2.4,2.2c0,0.3-0.1,0.5-0.1,0.9H85.5L85.5,29.3L85.5,29.3L85.5,29.3z"/>
	<path class="st0" d="M93.6,26.5H96l-0.9,4.6c-0.1,0.6-0.4,1.9-0.4,2.6c0,1.2,0.7,2.5,2.6,2.5c0.6,0,1.5-0.1,2-0.3l0.3-1.7
		c-0.4,0.2-1,0.3-1.4,0.3c-1,0-1.4-0.5-1.4-1.2c0-0.3,0.2-1.6,0.3-2l1-4.7h3l0.3-1.6h-3l0.5-2.6l-2,0.1l-0.6,2.6h-2.4L93.6,26.5
		L93.6,26.5L93.6,26.5z"/>
	<polygon class="st0" points="103.7,35.9 106.1,35.9 110.8,27 110.9,27 111.8,35.9 114.1,35.9 120.1,24.9 117.8,24.9 113.3,33.7 
		113.3,33.7 112.5,24.9 110.1,24.9 105.3,33.7 105.3,33.7 104.5,24.9 102.5,24.9 103.7,35.9 	"/>
	<path class="st0" d="M121.1,31.4c0-2.3,1.4-5.1,4.1-5.1c1.8,0,2.8,1.5,2.8,3.1c0,2.5-1.8,5.1-4,5.1C122,34.5,121.1,33.1,121.1,31.4
		L121.1,31.4L121.1,31.4z M119,31.2c0,3.3,2,4.9,5,4.9c3.9,0,6.2-3,6.2-6.8c0-3-2-4.8-4.9-4.8C121.3,24.6,119,27.6,119,31.2
		L119,31.2L119,31.2L119,31.2z"/>
	<path class="st0" d="M130.2,35.9h2l1.1-5.4c0.3-1.4,1.5-4.1,4-4.1c0.2,0,0.5,0.1,0.9,0.2l0.5-1.8c-0.4-0.1-0.7-0.2-0.9-0.2
		c-1.9,0-3.1,1-3.7,2H134l0.3-1.7h-1.8c-0.1,0.7-0.3,1.2-0.3,1.6L130.2,35.9L130.2,35.9L130.2,35.9z"/>
	<polygon class="st0" points="137.7,35.9 139.7,35.9 140.9,30.2 144.8,35.9 147.5,35.9 142.9,29.7 149.2,24.9 146.2,24.9 
		141.1,29.2 141.1,29.2 142.5,22.3 140.5,22.3 137.7,35.9 	"/>
	<path class="st0" d="M157,25.2c-0.9-0.3-1.9-0.6-2.9-0.6c-1.8,0-4.1,0.9-4.1,3.2c0,2.8,3.7,3.1,3.7,5c0,1.2-1.2,1.7-2.3,1.7
		c-0.9,0-1.7-0.3-2.5-0.7l-0.4,1.8c0.8,0.3,1.4,0.5,3.2,0.5c1.7,0,4.1-0.9,4.1-3.5c0-3.1-3.7-3.1-3.7-5c0-1.1,1.2-1.3,2-1.3
		s1.6,0.3,2.2,0.5L157,25.2L157,25.2L157,25.2z"/>
	<path class="st0" d="M99.7,40.2c0,0.8-0.7,1.4-1.4,1.4c-0.8,0-1.4-0.6-1.4-1.4c0-0.8,0.6-1.4,1.4-1.4C99,38.8,99.7,39.4,99.7,40.2
		L99.7,40.2L99.7,40.2z"/>
	<path class="st0" d="M92.4,40.2c0,0.8-0.6,1.4-1.4,1.4c-0.7,0-1.4-0.6-1.4-1.4c0-0.8,0.7-1.4,1.4-1.4
		C91.8,38.8,92.4,39.4,92.4,40.2L92.4,40.2L92.4,40.2z"/>
	<g>
		<path class="st0" d="M83.4,40.2c0,0.8-0.6,1.4-1.4,1.4c-0.7,0-1.4-0.6-1.4-1.4c0-0.8,0.7-1.4,1.4-1.4
			C82.8,38.8,83.4,39.4,83.4,40.2L83.4,40.2L83.4,40.2z"/>
		<path class="st0" d="M72.4,40.3c-0.1,0.8-0.7,1.4-1.5,1.3c-0.8-0.1-1.3-0.7-1.2-1.5c0.1-0.7,0.7-1.3,1.4-1.2
			C71.9,38.9,72.4,39.6,72.4,40.3L72.4,40.3L72.4,40.3z"/>
	</g>
	<path class="st0" d="M58.3,40.2c0,0.8-0.6,1.4-1.4,1.4c-0.7,0-1.4-0.6-1.4-1.4c0-0.8,0.7-1.4,1.4-1.4
		C57.8,38.8,58.3,39.4,58.3,40.2L58.3,40.2L58.3,40.2z"/>
</g>
</svg>
