<?xml version="1.0" encoding="utf-8"?>
<!-- Generator: Adobe Illustrator 23.0.1, SVG Export Plug-In . SVG Version: 6.00 Build 0)  -->
<svg version="1.1" id="Layer_1" xmlns="http://www.w3.org/2000/svg" xmlns:xlink="http://www.w3.org/1999/xlink" x="0px" y="0px"
	 viewBox="0 0 165.9 50" style="enable-background:new 0 0 165.9 50;" xml:space="preserve">
<style type="text/css">
	.st0{clip-path:url(#SVGID_2_);}
</style>
<g>
	<g>
		<path d="M43.4,27.6l1.1-3.5V0c-12.7,0-14,4.9-14,9.5v26.4c0,1.4-0.1,2.8-0.4,4.2C36.8,38.9,41.2,34.8,43.4,27.6"/>
		<rect x="8.3" y="2.8" width="2.8" height="2.7"/>
		<rect x="11.1" y="6.9" width="2.8" height="2.8"/>
		<rect x="8.4" y="10.4" width="2.8" height="2.7"/>
		<rect x="5.6" y="14.5" width="2.7" height="2.7"/>
		<rect width="2.8" height="2.8"/>
		<path d="M5.6,20h2.8v6.1h2.8V15.9H14v20c0,9.5,8.3,14.1,8.3,14.1C8.2,50,0,41.5,0,30.3V7.6h2.8v15.2h2.8V20z"/>
	</g>
	<g>
		<g>
			<defs>
				<path id="SVGID_1_" d="M24.2,41.6c-3.7-0.2-6.6-1.1-8.8-2.5c1.5,6.5,7.1,9.7,7.4,9.8l1.7,0.9c12.6-0.8,20-9,20-19.7V28
					C41.4,37.7,34.4,42.1,24.2,41.6"/>
			</defs>
			<use xlink:href="#SVGID_1_"  style="overflow:visible;"/>
			<clipPath id="SVGID_2_">
				<use xlink:href="#SVGID_1_"  style="overflow:visible;"/>
			</clipPath>
			<rect x="15.4" y="28" class="st0" width="29" height="22"/>
		</g>
	</g>
	<rect x="5.6" y="5.6" width="2.7" height="2.7"/>
</g>
<g>
	<path d="M129.3,29.6c-2.4,0-4.2-0.7-5.5-1.9c-1.3-1.3-1.9-3.2-1.9-5.7V10.6l0,0c0.6,0,2.7,0.1,2.7,2.1v9.9c0.1,2.9,1.8,4.6,4.6,4.6
		c2.9,0,4.6-1.7,4.6-4.6v-9.9c0-1.9,2.1-2.1,2.7-2.1l0,0V22c0,2.4-0.6,4.3-1.9,5.7C133.5,28.9,131.6,29.6,129.3,29.6"/>
	<path d="M66.6,29.6c-2.4,0-4.2-0.7-5.5-1.9c-1.3-1.3-1.9-3.2-1.9-5.7V10.6l0,0c0.6,0,2.7,0.1,2.7,2.1v9.9c0.1,2.9,1.8,4.6,4.6,4.6
		c2.9,0,4.6-1.7,4.6-4.6v-9.9c0-1.9,2.1-2.1,2.7-2.1l0,0V22c0,2.4-0.6,4.3-1.9,5.7C70.8,28.9,68.9,29.6,66.6,29.6"/>
	<path d="M120.4,29.2c0-0.3,0-1.2-0.6-1.8c-0.3-0.3-0.7-0.5-1.2-0.5h-3.2c1.7-1.7,2.7-4.1,2.7-6.8c0-4.6-2.1-9.5-8.1-9.5
		s-8.1,5-8.1,9.5c0,4.6,2.1,9.5,8.1,9.5l0,0c0.5,0,0.9-0.1,1.4-0.1c0.3,0,0.6-0.1,0.9-0.1l0.5-0.1h7.6V29.2z M110,27.2
		c-4.6,0-5.3-4.4-5.3-7.1c0-2.1,0.5-7.2,5.3-7.2c4.6,0,5.3,4.5,5.3,7.2C115.3,22.2,114.8,27.2,110,27.2"/>
	<path d="M141.3,29.4V12.7c0-1.9,2.1-2.1,2.7-2.1l0,0v18.5c0,0.2-0.1,0.3-0.3,0.3C143.7,29.4,141.3,29.4,141.3,29.4z"/>
	<path d="M95.6,29.4V12.6c0-1.9,2.1-2.1,2.7-2.1l0,0v18.6c0,0.2-0.1,0.3-0.3,0.3H95.6z"/>
	<path d="M162.9,29.4V12.6c0-1.9,2.1-2.1,2.7-2.1l0,0v18.6c0,0.2-0.1,0.3-0.3,0.3H162.9z"/>
	<path d="M146.7,10.6V13h5.6v16.4h2.4c0.2,0,0.3-0.1,0.3-0.3V13h5.1c0.2,0,0.3-0.1,0.3-0.3v-2.1H146.7z"/>
	<path d="M146.7,10.6V13h5.6v16.4h2.4c0.2,0,0.3-0.1,0.3-0.3V13h5.1c0.2,0,0.3-0.1,0.3-0.3v-2.1H146.7z"/>
	<path d="M88.4,19.7l-0.2-0.1l0.2-0.1c1.6-0.7,2.5-2.3,2.5-3.9c0-3-2.2-4.9-5.9-4.9h-6.5v18.7H85c0.2,0,0.4,0,0.6,0
		c0.8,0,1.7,0,2.6-0.4c2.1-0.8,3.3-2.6,3.3-4.6C91.5,22.7,90.7,20.3,88.4,19.7 M88.1,15.7c0,1-0.3,1.8-0.9,2.2
		c-0.4,0.3-1.1,0.5-1.9,0.5h-4V13h3h0.9C87.3,13.1,88.1,14,88.1,15.7 M85.7,27h-4.3v-6.2h4c1.3,0,3.4,0.5,3.4,3.1
		C88.9,26.3,87,26.9,85.7,27"/>
	<polygon points="59.6,35 60.6,35 63.1,39 63.1,39 63.1,35 64,35 64,40.5 63,40.5 60.5,36.5 60.5,36.5 60.5,40.5 59.6,40.5 	"/>
	<polygon points="74.2,35 78.1,35 78.1,35.8 75.2,35.8 75.2,37.3 77.9,37.3 77.9,38 75.2,38 75.2,39.6 78.2,39.6 78.2,40.5 
		74.2,40.5 	"/>
	<polygon points="87.7,35 92.1,35 92.1,35.8 90.4,35.8 90.4,40.5 89.4,40.5 89.4,35.8 87.7,35.8 	"/>
	<polygon points="101.6,35 102.5,35 103.5,39.2 103.5,39.2 104.6,35 105.6,35 106.7,39.2 106.7,39.2 107.7,35 108.7,35 107.2,40.5 
		106.2,40.5 105.1,36.3 105.1,36.3 104,40.5 103,40.5 	"/>
	<path d="M120.6,34.9c0.4,0,0.8,0.1,1.1,0.2c0.3,0.2,0.6,0.4,0.8,0.6c0.2,0.3,0.4,0.6,0.5,0.9c0.1,0.3,0.2,0.7,0.2,1.1
		c0,0.4-0.1,0.8-0.2,1.1s-0.3,0.6-0.5,0.9c-0.2,0.3-0.5,0.5-0.8,0.6s-0.7,0.2-1.1,0.2s-0.8-0.1-1.1-0.2c-0.3-0.1-0.6-0.4-0.8-0.6
		c-0.2-0.3-0.4-0.6-0.5-0.9c-0.1-0.3-0.2-0.7-0.2-1.1c0-0.4,0.1-0.8,0.2-1.1s0.3-0.6,0.5-0.9c0.2-0.3,0.5-0.5,0.8-0.6
		C119.8,35,120.2,34.9,120.6,34.9 M120.6,35.7c-0.3,0-0.5,0.1-0.8,0.2c-0.2,0.1-0.4,0.3-0.5,0.5s-0.2,0.4-0.3,0.7
		c-0.1,0.2-0.1,0.5-0.1,0.8s0,0.5,0.1,0.8c0.1,0.2,0.2,0.5,0.3,0.7c0.1,0.2,0.3,0.4,0.5,0.5s0.5,0.2,0.8,0.2s0.5-0.1,0.7-0.2
		c0.2-0.1,0.4-0.3,0.5-0.5s0.2-0.4,0.3-0.7c0.1-0.2,0.1-0.5,0.1-0.8s0-0.5-0.1-0.8c-0.1-0.2-0.2-0.5-0.3-0.7
		c-0.1-0.2-0.3-0.4-0.5-0.5C121.1,35.7,120.9,35.7,120.6,35.7"/>
	<path d="M133.1,35h2.6c0.6,0,1,0.1,1.3,0.4c0.3,0.3,0.4,0.6,0.4,1.1c0,0.3,0,0.5-0.1,0.6c-0.1,0.2-0.2,0.3-0.3,0.4
		c-0.1,0.1-0.2,0.2-0.3,0.2s-0.2,0.1-0.2,0.1l0,0c0.1,0,0.2,0,0.3,0.1c0.1,0,0.2,0.1,0.3,0.2c0.1,0.1,0.1,0.2,0.2,0.3
		c0.1,0.1,0.1,0.3,0.1,0.5c0,0.3,0,0.6,0.1,0.9c0,0.3,0.1,0.4,0.2,0.6h-1c-0.1-0.1-0.1-0.2-0.1-0.4c0-0.1,0-0.3,0-0.4
		c0-0.2,0-0.5,0-0.6c0-0.2-0.1-0.3-0.2-0.5c-0.1-0.1-0.2-0.2-0.3-0.3s-0.3-0.1-0.5-0.1h-1.4v2.2h-1V35H133.1z M134.1,37.5h1.6
		c0.3,0,0.5-0.1,0.7-0.2c0.2-0.1,0.2-0.4,0.2-0.7c0-0.2,0-0.3-0.1-0.4c-0.1-0.1-0.1-0.2-0.2-0.3c-0.1-0.1-0.2-0.1-0.3-0.1
		s-0.2,0-0.4,0h-1.5V37.5z"/>
	<polygon points="147.6,35 148.6,35 148.6,37.5 151,35 152.2,35 150,37.2 152.3,40.5 151.1,40.5 149.4,37.9 148.6,38.6 148.6,40.5 
		147.6,40.5 	"/>
	<path d="M162.4,38.6c0,0.2,0,0.4,0.1,0.5s0.2,0.3,0.3,0.4c0.1,0.1,0.3,0.2,0.4,0.2c0.2,0,0.3,0.1,0.5,0.1s0.4,0,0.5-0.1
		c0.1,0,0.3-0.1,0.4-0.2c0.1-0.1,0.2-0.2,0.2-0.3s0.1-0.2,0.1-0.3c0-0.2,0-0.4-0.1-0.5s-0.2-0.2-0.3-0.2c-0.2-0.1-0.4-0.1-0.7-0.2
		c-0.3-0.1-0.6-0.1-1-0.2c-0.2-0.1-0.4-0.1-0.6-0.2c-0.2-0.1-0.3-0.2-0.4-0.3c-0.1-0.1-0.2-0.3-0.2-0.4c0-0.1-0.1-0.3-0.1-0.4
		c0-0.3,0.1-0.5,0.2-0.7c0.1-0.2,0.3-0.4,0.5-0.5s0.4-0.2,0.6-0.3c0.2-0.1,0.5-0.1,0.7-0.1c0.3,0,0.6,0,0.8,0.1
		c0.3,0.1,0.5,0.2,0.7,0.3s0.3,0.3,0.5,0.5c0.1,0.2,0.2,0.5,0.2,0.7h-1c0-0.4-0.1-0.6-0.4-0.7c-0.2-0.1-0.5-0.2-0.8-0.2
		c-0.1,0-0.2,0-0.3,0s-0.2,0.1-0.3,0.1c-0.1,0.1-0.2,0.1-0.2,0.2c-0.1,0.1-0.1,0.2-0.1,0.3c0,0.2,0.1,0.3,0.2,0.5
		c0.1,0.1,0.3,0.2,0.5,0.2c0,0,0.1,0,0.2,0.1c0.1,0,0.3,0.1,0.5,0.1s0.3,0.1,0.5,0.1s0.3,0.1,0.4,0.1c0.2,0.1,0.3,0.1,0.5,0.2
		c0.1,0.1,0.2,0.2,0.3,0.3s0.2,0.3,0.2,0.4c0,0.1,0.1,0.3,0.1,0.4c0,0.3-0.1,0.6-0.2,0.8c-0.1,0.2-0.3,0.4-0.5,0.5s-0.4,0.2-0.7,0.3
		s-0.5,0.1-0.8,0.1s-0.6,0-0.9-0.1c-0.3-0.1-0.5-0.2-0.7-0.3c-0.2-0.2-0.4-0.4-0.5-0.6c-0.1-0.2-0.2-0.5-0.2-0.9h0.9V38.6z"/>
</g>
</svg>
