<?xml version="1.0" encoding="utf-8"?>
<!-- Generator: Adobe Illustrator 23.0.1, SVG Export Plug-In . SVG Version: 6.00 Build 0)  -->
<svg version="1.1" id="Layer_3" xmlns="http://www.w3.org/2000/svg" xmlns:xlink="http://www.w3.org/1999/xlink" x="0px" y="0px"
	 viewBox="0 0 353 50" style="enable-background:new 0 0 353 50;" xml:space="preserve">
<style type="text/css">
	.st0{fill:#231F20;}
</style>
<path d="M142.9,17.1L142.9,17.1c-9.4,0-16.3,6.6-16.3,16.4c0,9.9,7.2,16.5,17.7,16.5c3.1,0,5.9-0.5,8.4-1.5l4.5-7.5l-0.6-0.3
	c-3.9,2-7.9,3-11.5,3c-5.4,0-10-2.7-10.6-7.4h23.9v-2.1C158.3,23.3,151.6,17.1,142.9,17.1z M134.4,30.4c0.6-4.5,3.4-7.4,8.1-7.4
	c4.9,0,7.9,2.8,8,7.4H134.4z"/>
<path d="M311.4,17.1c-9.4,0-16.3,6.6-16.3,16.4c0,9.9,7.2,16.5,17.7,16.5c3.1,0,6-0.5,8.4-1.5l4.5-7.5l-0.6-0.3c-3.9,2-7.9,3-11.5,3
	c-5.4,0-10-2.7-10.6-7.4h23.9C327.8,24,321.2,17.1,311.4,17.1z M302.9,30.4c0.6-4.5,3.5-7.4,8.1-7.4c4.9,0,7.9,2.8,8,7.4H302.9z"/>
<path d="M198.5,17.1c-9.4,0-16.3,6.6-16.3,16.4c0,9.9,7.2,16.5,17.7,16.5c3.1,0,5.9-0.5,8.4-1.5l4.5-7.5l-0.6-0.3
	c-3.8,2-7.8,3-11.5,3c-5.4,0-10-2.7-10.6-7.4H214C214.9,24,208.3,17.1,198.5,17.1z M190,30.4c0.6-4.5,3.5-7.4,8.1-7.4
	c4.9,0,7.9,2.8,7.9,7.4H190z"/>
<path d="M29.7,24.9v-0.1c4.8-1.4,8-4.9,8-10.1C37.7,6.2,30.6,3,23.6,3H0v0.7l2.4,2C5.2,8,5.6,8.4,5.6,10.5v38.6h16.6
	c8.7,0,17.5-3.1,17.5-13.1C39.7,30.1,35.5,25.5,29.7,24.9z M13.8,10.1h6.8c4.6,0,6,0.6,7.4,2c1.1,1,1.6,2.4,1.6,4
	c0,1.5-0.5,2.8-1.6,3.8c-1.4,1.3-3.2,1.9-6.6,1.9h-7.5L13.8,10.1L13.8,10.1z M21.4,42.2h-7.5V28.9h7.8c6.6,0,9.8,1.7,9.8,6.5
	C31.5,41.4,25.6,42.2,21.4,42.2z"/>
<path class="st0" d="M51.3,2.6c-2.9,0-5,2.2-5,4.7c0,2.4,2.1,4.7,5,4.7s5.1-2,5.1-4.7C56.4,4.6,54.2,2.6,51.3,2.6z"/>
<path d="M43.3,18.4l1.2,1c2.8,2.1,3,2.6,3,5.2v24.6h7.8V17.9h-12V18.4z"/>
<path d="M107.9,1.6l2.5,1.6c2.2,1.4,2.5,2.1,2.5,4.1v14.6h-0.2c-1.7-2.1-4.8-4.8-10.6-4.8c-9,0-15.1,7.2-15.1,16.4
	c0,9.3,5.8,16.5,15.4,16.5c4.4,0,8.5-1.7,10.8-5.5h0.1l0.8,4.7h6.7V1.1h-12.9C107.9,1.1,107.9,1.6,107.9,1.6z M104,42.9
	c-5.7,0-9.1-4.5-9.1-9.4s3.4-9.4,9.1-9.4c5.8,0,9.2,4.5,9.2,9.4S109.8,42.9,104,42.9z"/>
<path d="M276.2,1.6L276.2,1.6l1.1,0.8c3.8,2.4,4.2,3,4.2,7.1v12.3h-0.2c-1.6-2.1-4.8-4.8-10.6-4.8c-8.9,0-15.1,7.2-15.1,16.4
	c0,9.3,5.8,16.5,15.4,16.5c4.3,0,8.4-1.7,10.7-5.5h0.1l0.8,4.7h6.6v-48h-13.1v0.5H276.2z M272.5,42.9c-5.8,0-9.2-4.5-9.2-9.4
	s3.4-9.4,9.2-9.4c5.8,0,9.2,4.5,9.2,9.4S278.3,42.9,272.5,42.9z"/>
<path d="M350.2,17.1c-4.2,0-7.6,2.2-9.2,5.8h-0.1v-5h-13.2v0.4l2,1.3c3.1,2,3.4,2.6,3.4,6.5v23.1h7.8V32.4c0-1.7,1-7.8,8.4-7.8
	c1.3,0,2.5,0.3,3.8,0.5v-7.5C352.1,17.3,351.2,17.1,350.2,17.1z"/>
<path d="M173.4,12.1c0-5.5,4.8-7.1,11.1-4.6l0.4-0.4L183,0.6c-12-2.4-17.6,3-17.6,11.5v5.7h-7.6v0.5l4,3.3c3.1,2.4,3.6,3,3.6,5.7v22
	h7.9V24.5h7.3v-6.7h-7.3L173.4,12.1z"/>
<path d="M238.2,17.1L238.2,17.1c-3.4,0-7.4,1.7-10,5.6h-0.1v-4.8h-6.7v-0.1h-6.1v0.4l2,1.3c3.2,2,3.4,2.6,3.4,6.5v23.1h7.8v-17
	c0-4.2,2-8,7.1-8c5.5,0,6.3,4.2,6.3,7.6v17.4h7.8V29.4C249.8,22.2,245.6,17.1,238.2,17.1z"/>
<path d="M74.1,38.7V24.6h8.4v-6.7h-8.4V8.8h-4.9l-2.9,9.1h-7.5v0.4l2.8,2.4c4.4,3.6,4.8,3.5,4.8,5.5v12.7c0,10.2,7.2,12.1,13.5,10.3
	l3.9-6.2l-0.2-0.1C77.9,44.5,74.1,44.4,74.1,38.7z"/>
</svg>
