<?xml version="1.0" encoding="utf-8"?>
<!-- Generator: Adobe Illustrator 23.0.1, SVG Export Plug-In . SVG Version: 6.00 Build 0)  -->
<svg version="1.1" id="Layer_1" xmlns="http://www.w3.org/2000/svg" xmlns:xlink="http://www.w3.org/1999/xlink" x="0px" y="0px"
	 viewBox="0 0 188.3 50" style="enable-background:new 0 0 188.3 50;" xml:space="preserve">
<path d="M0,26.9l6.7-0.6c0.4,2.3,1.2,4,2.5,5c1.3,1.1,2.9,1.6,5.1,1.6s3.9-0.5,5.1-1.4c1.1-1,1.7-2.1,1.7-3.3c0-0.8-0.2-1.5-0.7-2.1
	s-1.3-1.1-2.5-1.5c-0.8-0.3-2.7-0.8-5.6-1.6c-3.7-0.9-6.3-2.1-7.8-3.4c-2.1-1.9-3.2-4.3-3.2-7c0-1.8,0.5-3.5,1.5-5
	C3.8,6,5.2,4.8,7.1,4s4.1-1.2,6.8-1.2c4.3,0,7.6,1,9.8,2.9s3.3,4.5,3.4,7.7l-7,0.2c-0.3-1.7-0.9-3-1.9-3.8s-2.4-1.2-4.4-1.2
	S10.2,9,9.1,9.9C8.3,10.4,8,11.1,8,12c0,0.8,0.3,1.5,1,2.1c0.9,0.8,3,1.5,6.4,2.3s5.9,1.6,7.5,2.5s2.9,2.1,3.8,3.6s1.4,3.4,1.4,5.6
	c0,2-0.6,3.9-1.7,5.6s-2.7,3-4.7,3.9c-2,0.8-4.5,1.3-7.5,1.3c-4.4,0-7.7-1-10.1-3.1C1.8,33.7,0.4,30.8,0,26.9"/>
<path d="M27.2,13h7l6,17.9L46,13h6.8L44,37.2l-1.6,4.4c-0.6,1.5-1.1,2.6-1.6,3.4c-0.5,0.8-1.1,1.4-1.8,1.9s-1.5,0.9-2.5,1.1
	c-1,0.3-2.1,0.4-3.4,0.4c-1.3,0-2.5-0.1-3.7-0.4l-0.5-5.2c1,0.2,2,0.3,2.8,0.3c1.5,0,2.7-0.5,3.4-1.4s1.3-2.1,1.7-3.5L27.2,13z"/>
<path d="M75.8,38.2h-6.6V25.4c0-2.7-0.1-4.5-0.4-5.3c-0.3-0.8-0.7-1.4-1.4-1.9c-0.6-0.4-1.4-0.7-2.3-0.7c-1.2,0-2.2,0.3-3.1,1
	c-1,0.7-1.6,1.5-1.9,2.5c-0.3,1.1-0.5,3-0.5,5.8v11.4H53V12.9h6.1v3.7c2.2-2.8,4.9-4.2,8.3-4.2c1.5,0,2.8,0.3,4,0.8s2.1,1.2,2.8,2
	c0.6,0.8,1.1,1.8,1.3,2.8c0.2,1,0.4,2.5,0.4,4.5v15.7H75.8z"/>
<path d="M75.8,25.3c0-2.2,0.5-4.4,1.6-6.5S80,15.2,82,14c2-1.1,4.2-1.6,6.7-1.6c3.8,0,6.9,1.2,9.3,3.7s3.6,5.6,3.6,9.4
	s-1.2,7-3.7,9.5c-2.4,2.5-5.5,3.8-9.3,3.8c-2.3,0-4.5-0.5-6.6-1.6c-2.1-1-3.7-2.6-4.7-4.6C76.4,30.7,75.8,28.2,75.8,25.3 M82.6,25.7
	c0,2.5,0.6,4.4,1.8,5.8c1.2,1.3,2.6,2,4.4,2c1.7,0,3.2-0.7,4.4-2c1.2-1.3,1.8-3.3,1.8-5.8s-0.6-4.4-1.8-5.7c-1.2-1.3-2.6-2-4.4-2
	c-1.7,0-3.2,0.7-4.4,2C83.2,21.2,82.6,23.1,82.6,25.7"/>
<path d="M109.8,0v32.6c0,1.6,0.1,2.6,0.3,3.1c0.2,0.5,0.6,0.9,1,1.1c0.5,0.3,1.3,0.4,2.6,0.4v1h-12v-1c1.1,0,1.9-0.1,2.3-0.4
	c0.4-0.2,0.7-0.6,0.9-1.2c0.2-0.5,0.3-1.6,0.3-3.1V10.4c0-2.8-0.1-4.5-0.2-5.2c-0.1-0.6-0.3-1.1-0.6-1.3c-0.3-0.2-0.6-0.4-1-0.4
	s-1,0.2-1.7,0.4l-0.5-1l7.2-3h1.4V0z"/>
<path d="M125.6,12.9c3.7,0,6.7,1.4,8.9,4.2c1.9,2.4,2.9,5.2,2.9,8.3c0,2.2-0.5,4.4-1.6,6.7c-1.1,2.2-2.5,4-4.3,5.1s-3.9,1.7-6.2,1.7
	c-3.7,0-6.6-1.5-8.8-4.4c-1.8-2.5-2.8-5.3-2.8-8.4c0-2.3,0.6-4.5,1.7-6.7s2.6-3.9,4.4-5C121.7,13.4,123.6,12.9,125.6,12.9
	 M124.8,14.7c-0.9,0-1.9,0.2-2.8,0.8s-1.7,1.5-2.3,2.9c-0.6,1.4-0.9,3.2-0.9,5.4c0,3.6,0.7,6.6,2.1,9.2s3.3,3.9,5.6,3.9
	c1.7,0,3.2-0.7,4.3-2.1c1.1-1.4,1.7-3.9,1.7-7.4c0-4.4-0.9-7.8-2.8-10.3C128.4,15.5,126.8,14.7,124.8,14.7"/>
<path d="M142.8,29.2c-1.5-0.8-2.6-1.8-3.4-3.1c-0.8-1.3-1.2-2.8-1.2-4.3c0-2.4,0.9-4.5,2.7-6.3s4.2-2.6,7-2.6c2.3,0,4.3,0.6,6,1.7
	h5.2c0.8,0,1.2,0,1.3,0.1s0.2,0.1,0.3,0.2c0.1,0.2,0.2,0.5,0.2,0.9c0,0.5-0.1,0.8-0.1,1c-0.1,0.1-0.1,0.2-0.3,0.2
	c-0.1,0.1-0.6,0.1-1.4,0.1h-3.2c1,1.3,1.5,2.9,1.5,5c0,2.3-0.9,4.3-2.6,5.9c-1.7,1.6-4.1,2.5-7,2.5c-1.2,0-2.4-0.2-3.7-0.6
	c-0.7,0.7-1.2,1.3-1.5,1.8c-0.3,0.5-0.4,0.9-0.4,1.3c0,0.3,0.1,0.6,0.4,0.9c0.3,0.3,0.9,0.5,1.7,0.6c0.5,0.1,1.7,0.2,3.7,0.2
	c3.6,0.1,6,0.3,7.1,0.4c1.7,0.2,3,0.9,4,1.8c1,1,1.5,2.2,1.5,3.7c0,2-0.9,3.9-2.8,5.7C155,48.7,151.4,50,147,50
	c-3.4,0-6.3-0.8-8.7-2.3c-1.3-0.9-2-1.8-2-2.8c0-0.4,0.1-0.8,0.3-1.3c0.3-0.7,0.9-1.6,1.8-2.7c0.1-0.2,1-1.1,2.7-2.9
	c-0.9-0.6-1.6-1.1-1.9-1.5c-0.4-0.4-0.6-0.9-0.6-1.5s0.3-1.4,0.7-2.2C139.8,31.9,141,30.7,142.8,29.2 M142.6,38.2
	c-0.8,0.9-1.4,1.7-1.8,2.5c-0.4,0.7-0.6,1.5-0.6,2.1c0,0.9,0.5,1.6,1.5,2.3c1.8,1.1,4.3,1.7,7.7,1.7c3.2,0,5.5-0.6,7.1-1.7
	c1.5-1.1,2.3-2.3,2.3-3.6c0-0.9-0.5-1.6-1.4-2s-2.8-0.6-5.5-0.7C147.8,38.7,144.7,38.5,142.6,38.2 M147.4,14.2
	c-1.3,0-2.4,0.6-3.3,1.6c-0.9,1-1.3,2.6-1.3,4.8c0,2.8,0.6,5,1.8,6.5c0.9,1.2,2.1,1.8,3.5,1.8c1.3,0,2.5-0.5,3.3-1.5
	c0.9-1,1.3-2.6,1.3-4.7c0-2.8-0.6-5-1.8-6.6C150,14.8,148.8,14.2,147.4,14.2"/>
<path d="M161.6,13.6H173v1h-0.6c-0.8,0-1.4,0.2-1.8,0.5c-0.4,0.4-0.6,0.8-0.6,1.3c0,0.7,0.3,1.7,0.9,2.9l6,12.4l5.5-13.6
	c0.3-0.7,0.5-1.5,0.5-2.2c0-0.3-0.1-0.6-0.2-0.7c-0.1-0.2-0.4-0.4-0.7-0.5s-0.8-0.2-1.6-0.2v-1h7.9v1c-0.7,0.1-1.2,0.2-1.5,0.4
	c-0.4,0.2-0.8,0.6-1.2,1.2c-0.2,0.3-0.5,0.9-0.9,2.1l-9.9,24.5c-1,2.4-2.2,4.2-3.8,5.4s-3.1,1.8-4.5,1.8c-1.1,0-1.9-0.3-2.6-0.9
	c-0.7-0.6-1-1.3-1-2.1c0-0.7,0.2-1.3,0.7-1.8s1.2-0.7,2-0.7c0.6,0,1.4,0.2,2.4,0.6c0.7,0.2,1.2,0.4,1.3,0.4c0.5,0,1.1-0.3,1.8-0.8
	c0.6-0.5,1.3-1.6,1.9-3.2l1.7-4.3l-8.8-18.5c-0.3-0.6-0.7-1.2-1.3-2.1c-0.5-0.6-0.8-1-1.1-1.3c-0.4-0.3-1.1-0.5-2-0.8v-0.8H161.6z"
	/>
</svg>
