<?xml version="1.0" encoding="utf-8"?>
<!-- Generator: Adobe Illustrator 23.0.1, SVG Export Plug-In . SVG Version: 6.00 Build 0)  -->
<svg version="1.1" id="Layer_1" xmlns="http://www.w3.org/2000/svg" xmlns:xlink="http://www.w3.org/1999/xlink" x="0px" y="0px"
	 viewBox="0 0 137.8 50" style="enable-background:new 0 0 137.8 50;" xml:space="preserve">
<g>
	<g>
		<circle cx="59.5" cy="13.8" r="5.9"/>
		<path d="M25.5,21H14.3v18.4h5.3V24.9h4.6c1.1,0,2,0.9,2,2l0,0l0,0v12.5h5.3V26.9C31.5,23.7,28.8,21,25.5,21z"/>
		<path d="M83.5,35.5H80l0,0l0,0c-1-0.1-1.8-0.9-1.8-2l0,0l0,0v-8.6h5.3v-4h-5.3v-6.6h-5.3v6.6h-2.3l-3,4h5.3v8.6
			c0,3.3,2.6,5.9,5.9,5.9l0,0h4.6v-2.2l0,0L83.5,35.5L83.5,35.5z"/>
		<polygon points="69.4,21 63.4,21 59.5,26.3 55.6,21 49.6,21 56.5,30.2 49.6,39.5 55.6,39.5 59.5,34.2 63.4,39.5 69.4,39.5 
			62.5,30.2 		"/>
		<polygon points="105.9,21 101.3,32.8 96.7,21 91.4,21 98.7,39.5 103.9,39.5 111.2,21 		"/>
		<g>
			<rect x="84.8" y="21" width="5.3" height="18.4"/>
			<rect x="84.8" y="14.4" width="5.3" height="5.3"/>
		</g>
		<path d="M42,35.5c-1.6,0-3.1-1.4-3.6-3.3h12.7c0.1-0.6,0.2-1.3,0.2-2C51.2,25,47.1,21,42.1,21c-5.1,0-9.2,4.2-9.2,9.2
			c0,5.1,4.2,9.2,9.2,9.2l0,0h6.2l3-4L42,35.5L42,35.5z M42,25c1.6,0,3.1,1.4,3.6,3.3h-7.4C38.9,26.3,40.3,25,42,25z"/>
		<path d="M122.1,21h-9.6l-1.6,4h9.8c1.1,0,2,0.9,2,2l0,0l0,0v1.3h-7.9l0,0c-3,0.2-5.3,2.6-5.3,5.6s2.3,5.4,5.3,5.6l0,0H128V27
			C128,23.7,125.4,21,122.1,21z M116.2,32.2c0.1,0,0.2,0,0.3-0.1l0,0h6.3l0,0v3.3l0,0h-2.2h-4.1l0,0c-0.1,0-0.2,0-0.3-0.1
			c-0.8-0.1-1.3-0.8-1.3-1.6C114.9,33.1,115.4,32.4,116.2,32.2z"/>
	</g>
</g>
</svg>
