<?xml version="1.0" encoding="utf-8"?>
<!-- Generator: Adobe Illustrator 23.0.1, SVG Export Plug-In . SVG Version: 6.00 Build 0)  -->
<svg version="1.1" id="Layer_1" xmlns="http://www.w3.org/2000/svg" xmlns:xlink="http://www.w3.org/1999/xlink" x="0px" y="0px"
	 viewBox="0 0 308.9 50" style="enable-background:new 0 0 308.9 50;" xml:space="preserve">
<g>
	<path d="M82.6,28.8l-1.4,4h-0.1c-0.2-0.9-0.7-2.2-1.4-3.9l-7.5-18.8H65v30h4.8V21.6c0-1.2,0-2.5,0-4.1c0-0.8-0.1-1.4-0.2-1.9h0.1
		c0.2,1.2,0.5,2,0.7,2.6l9,21.9h3.4L91.7,18c0.2-0.5,0.4-1.5,0.6-2.4h0.1c-0.1,2.2-0.2,4.2-0.2,5.4v19h5.2V10h-7.1L82.6,28.8z
		 M102.2,18.4h5v21.5h-5V18.4z M104.8,9.4c-0.9,0-1.6,0.3-2.1,0.9s-0.9,1.2-0.9,2.1c0,0.8,0.3,1.5,0.9,2.1c0.6,0.5,1.3,0.8,2.1,0.8
		c0.9,0,1.6-0.3,2.1-0.8c0.6-0.5,0.9-1.2,0.9-2.1s-0.3-1.5-0.9-2.1C106.4,9.7,105.7,9.4,104.8,9.4 M125.2,18.3
		c-0.9-0.2-1.9-0.3-2.8-0.3c-2.3,0-4.4,0.5-6.1,1.5s-3.1,2.4-4,4.1c-0.9,1.8-1.4,3.8-1.4,6.2c0,2.1,0.5,3.9,1.4,5.5s2.1,2.9,3.8,3.8
		c1.6,0.9,3.4,1.4,5.5,1.4c2.4,0,4.5-0.5,6.1-1.4l0,0v-4.7l-0.2,0.2c-0.7,0.5-1.6,1-2.4,1.3c-0.9,0.3-1.7,0.5-2.4,0.5
		c-2,0-3.6-0.6-4.7-1.9c-1.2-1.2-1.7-2.9-1.7-5.1s0.6-4,1.8-5.2c1.2-1.3,2.8-1.9,4.7-1.9c1.6,0,3.3,0.5,4.8,1.6l0.2,0.2v-4.9l0,0
		C126.9,18.8,126.2,18.4,125.2,18.3 M141.8,18.1c-1.2,0-2.4,0.4-3.4,1.2c-0.9,0.7-1.4,1.7-1.9,2.9l0,0v-3.8h-5v21.5h5V29
		c0-1.9,0.4-3.4,1.2-4.5c0.9-1.2,1.9-1.7,3.3-1.7c0.5,0,0.9,0.1,1.5,0.2c0.5,0.2,0.9,0.3,1.2,0.5l0.2,0.2v-5h-0.1
		C143.3,18.2,142.6,18.1,141.8,18.1 M155.5,18c-3.5,0-6.4,1-8.3,3.1c-2,2.1-3,4.9-3,8.4c0,3.3,1,6,2.9,8c1.9,1.9,4.6,2.9,7.9,2.9
		c3.4,0,6.2-1,8.2-3.1s3-4.9,3-8.3s-0.9-6.1-2.8-8.1C161.5,19,158.8,18,155.5,18 M159.5,34.5c-0.9,1.2-2.4,1.8-4.2,1.8
		s-3.3-0.6-4.3-1.9c-1-1.2-1.6-2.9-1.6-5.2s0.5-4,1.6-5.3c1-1.2,2.5-1.9,4.3-1.9s3.2,0.6,4.2,1.8c1,1.2,1.6,2.9,1.6,5.2
		C160.9,31.5,160.5,33.3,159.5,34.5 M177.4,27.4c-1.6-0.7-2.6-1.2-3.1-1.6c-0.4-0.4-0.6-0.9-0.6-1.6c0-0.6,0.2-1.2,0.8-1.6
		s1.2-0.6,2.2-0.6c0.9,0,1.7,0.2,2.6,0.4c0.9,0.2,1.6,0.6,2.2,1l0.2,0.2v-4.7h-0.1c-0.6-0.2-1.4-0.5-2.3-0.7
		c-0.9-0.2-1.8-0.2-2.5-0.2c-2.4,0-4.4,0.6-5.9,1.9c-1.6,1.2-2.3,2.8-2.3,4.7c0,1,0.2,1.9,0.5,2.6s0.9,1.4,1.6,2
		c0.7,0.5,1.7,1.2,3.1,1.7c1.2,0.5,2.1,0.9,2.6,1.2s0.9,0.7,1.2,0.9c0.2,0.3,0.3,0.7,0.3,1.2c0,1.4-1.1,2.1-3.3,2.1
		c-0.9,0-1.7-0.2-2.8-0.5c-1-0.3-2-0.9-2.8-1.4l-0.2-0.2v4.9h0.1c0.7,0.3,1.6,0.6,2.7,0.9c1.1,0.2,2.1,0.3,2.9,0.3
		c2.6,0,4.7-0.6,6.2-1.9c1.6-1.2,2.4-2.8,2.4-4.9c0-1.4-0.4-2.7-1.2-3.7C180.8,29.1,179.4,28.1,177.4,27.4 M196.5,18
		c-3.5,0-6.4,1-8.3,3.1s-3,4.9-3,8.4c0,3.3,1,6,2.9,8c1.9,1.9,4.6,2.9,7.9,2.9c3.4,0,6.2-1,8.2-3.1s3-4.9,3-8.3s-0.9-6.1-2.8-8.1
		C202.5,19,199.8,18,196.5,18 M200.5,34.5c-0.9,1.2-2.4,1.8-4.2,1.8c-1.9,0-3.3-0.6-4.3-1.9c-1-1.2-1.6-2.9-1.6-5.2s0.5-4,1.6-5.3
		c1-1.2,2.5-1.9,4.3-1.9c1.7,0,3.2,0.6,4.2,1.8c1,1.2,1.6,2.9,1.6,5.2C201.9,31.5,201.4,33.3,200.5,34.5 M234.1,22.6v-4.1H229v-6.4
		h-0.2l-4.8,1.4h-0.1v4.8h-7.6v-2.7c0-1.2,0.3-2.2,0.9-2.8c0.5-0.6,1.4-0.9,2.4-0.9c0.7,0,1.4,0.2,2.2,0.5l0.2,0.1V8.2h-0.1
		c-0.7-0.2-1.6-0.4-2.8-0.4c-1.5,0-2.8,0.3-4,0.9c-1.2,0.7-2.1,1.6-2.8,2.8s-1,2.5-1,4v3h-3.5v4.1h3.5V40h5.1V22.6h7.6v11
		c0,4.5,2.1,6.8,6.4,6.8c0.7,0,1.4-0.1,2.1-0.2c0.7-0.2,1.3-0.3,1.6-0.5l0,0v-4.1l-0.2,0.2c-0.3,0.2-0.6,0.3-1,0.5
		c-0.4,0.1-0.7,0.2-1,0.2c-1,0-1.7-0.2-2.2-0.8c-0.5-0.5-0.7-1.4-0.7-2.8V22.6H234.1z"/>
	<path d="M0,0h23.8v23.8H0V0z"/>
	<path d="M26.2,0H50v23.8H26.2V0z"/>
	<path d="M0,26.2h23.8V50H0V26.2z"/>
	<path d="M26.2,26.2H50V50H26.2V26.2z"/>
</g>
<g>
	<path d="M258.3,24.4c3.3-1.3,4.9-3.8,4.9-7.4c0-2.2-0.8-4-2.4-5.3c-1.5-1.3-3.6-2-6.1-2c-2.6,0-4.9,0.6-6.8,1.7l-0.2,0.1v4.1
		l0.6-0.4c1.7-1.3,3.6-2,5.6-2c3.5,0,5.2,1.5,5.2,4.6c0,3.4-2.3,5.1-6.9,5.1h-2.7v3.5h2.8c5.3,0,7.8,1.8,7.8,5.4
		c0,1.6-0.6,2.9-1.7,3.9c-1.2,1-2.7,1.4-4.7,1.4c-2.5,0-4.7-0.8-6.6-2.3l-0.6-0.4V39l0.2,0.1c1.7,1.1,4,1.6,6.9,1.6
		c3.2,0,5.7-0.8,7.7-2.5s3-3.9,3-6.7c0-2-0.7-3.7-2-5C261.3,25.5,259.9,24.8,258.3,24.4z"/>
	<path d="M278.9,21.1c-2.8,0-5,1.1-6.4,3.3c0.1-3.2,0.9-5.9,2.3-7.9c1.5-2.3,3.5-3.3,6-3.3c1.6,0,3.2,0.4,4.6,1.1l0.5,0.3v-4
		l-0.2-0.1c-1.3-0.6-3-0.9-5-0.9c-2.4,0-4.6,0.7-6.5,2.2c-1.9,1.4-3.3,3.5-4.3,6.1s-1.5,5.6-1.5,9c0,4.3,0.9,7.7,2.6,10.1
		c1.7,2.5,4.2,3.7,7.2,3.7c1.8,0,3.5-0.4,4.9-1.3c1.5-0.9,2.6-2.1,3.4-3.7c0.8-1.6,1.2-3.3,1.2-5.2c0-2.8-0.8-5.1-2.4-6.8
		C283.7,22,281.5,21.1,278.9,21.1z M283.5,31c0,1.8-0.5,3.4-1.5,4.5s-2.2,1.7-3.8,1.7c-1.6,0-2.9-0.6-4-2c-1.1-1.3-1.6-3-1.6-5
		c0-1.5,0.5-2.9,1.6-4s2.3-1.6,3.9-1.6c1.7,0,3,0.5,4,1.7C283,27.4,283.5,29,283.5,31z"/>
	<path d="M306.1,24.1c-1.8-1.6-4.4-2.4-7.5-2.4l0,0l-2.3,0.1l0.5-7.9h10.7v-3.7h-14.3l-1.1,15.5h0.4c1.3-0.2,3-0.2,4.9-0.2
		c2.4,0,4.2,0.5,5.4,1.5c1.2,1,1.8,2.4,1.8,4.2c0,1.9-0.6,3.3-1.8,4.4c-1.2,1.1-2.8,1.7-4.8,1.7s-4-0.6-5.9-1.9l-0.5-0.3v4.4
		l0.2,0.1c1.4,0.9,3.5,1.3,6.3,1.3c3.2,0,5.9-0.9,7.8-2.7c2-1.8,3-4.2,3-7.2C308.9,28,307.9,25.7,306.1,24.1z"/>
</g>
</svg>
