<?xml version="1.0" encoding="utf-8"?>
<!-- Generator: Adobe Illustrator 23.0.1, SVG Export Plug-In . SVG Version: 6.00 Build 0)  -->
<svg version="1.1" id="Layer_1" xmlns="http://www.w3.org/2000/svg" xmlns:xlink="http://www.w3.org/1999/xlink" x="0px" y="0px"
	 viewBox="0 0 159.8 50" style="enable-background:new 0 0 159.8 50;" xml:space="preserve">
<g>
	<path d="M111.5,2.6H95.7v15.6l-22,13.7l-3.5-2.4l21.2-14.1l-9.3-6.3L60.3,23L57,20.6L78.4,6.8L68.4,0L40.7,17.8
		c0,0-3.9-15.2-21.2-15.2H0v44.8c0,0,4.2,0,17,0c12.7,0,21-4.7,24-15.9L68.4,50l27-17.3v14.4h30V33.4h-14L111.5,2.6L111.5,2.6z
		 M19.5,33c-3.5,0-4.4,0-4.4,0V16.5c0,0,1.6,0,5.2,0s6.9,4.2,6.9,8.9C27.2,30.1,23,33,19.5,33z"/>
	<polygon points="145.7,33.2 145.7,2.7 129.8,2.7 129.8,33.2 129.8,43.5 129.8,47.2 159.8,47.2 159.8,33.2 	"/>
</g>
</svg>
