<?xml version="1.0" encoding="utf-8"?>
<!-- Generator: Adobe Illustrator 23.0.1, SVG Export Plug-In . SVG Version: 6.00 Build 0)  -->
<svg version="1.1" id="Layer_1" xmlns="http://www.w3.org/2000/svg" xmlns:xlink="http://www.w3.org/1999/xlink" x="0px" y="0px"
	 viewBox="0 0 94.6 50" style="enable-background:new 0 0 94.6 50;" xml:space="preserve">
<path d="M46.6,33.5c-0.1,0-2-0.5-4-0.5c-3.8,0-6.1,2.1-6.1,5.1c0,2.7,1.9,4.1,4.2,4.8c0.3,0.1,0.6,0.2,0.9,0.3
	c1,0.3,1.8,0.8,1.8,1.6c0,0.9-0.9,1.5-3,1.5c-1.8,0-3.6-0.5-3.9-0.6v3.8c0.2,0,2.3,0.4,4.5,0.4c3.2,0,6.8-1.4,6.8-5.5
	c0-2-1.2-3.8-3.9-4.7l-1.1-0.4c-0.7-0.2-1.9-0.6-1.9-1.6c0-0.8,0.9-1.3,2.6-1.3c1.4,0,3.2,0.5,3.2,0.5L46.6,33.5L46.6,33.5z
	 M81.7,41.5c0,2.4-1.8,4.3-4.3,4.3s-4.3-1.9-4.3-4.3c0-2.4,1.8-4.3,4.3-4.3C79.9,37.2,81.7,39.1,81.7,41.5 M77.4,33
	c-5.1,0-8.7,3.8-8.7,8.5s3.6,8.5,8.7,8.5s8.7-3.8,8.7-8.5S82.5,33,77.4,33 M30.9,49.7h-4.1V33.3h4.1V49.7z"/>
<path id="a_3_" d="M21.1,33.6c-0.4-0.1-1.8-0.6-3.8-0.6c-5,0-8.8,3.6-8.8,8.5c0,5.3,4.1,8.5,8.8,8.5c1.9,0,3.3-0.4,3.8-0.6V45
	c-0.2,0.1-1.5,0.9-3.5,0.9c-2.8,0-4.5-1.9-4.5-4.4s1.9-4.4,4.5-4.4c2,0,3.3,0.8,3.5,0.9V33.6z"/>
<g transform="translate(98.86)">
	<path id="a_2_" d="M-36,33.6c-0.3-0.1-1.8-0.6-3.7-0.6c-5,0-8.8,3.6-8.8,8.5c0,5.3,4.1,8.5,8.8,8.5c1.9,0,3.3-0.4,3.8-0.6V45
		c-0.2,0.1-1.5,0.9-3.5,0.9c-2.8,0-4.5-1.9-4.5-4.4s1.9-4.4,4.5-4.4c2,0,3.3,0.8,3.5,0.9L-36,33.6L-36,33.6z"/>
</g>
<path d="M24.7,25.9L24.7,25.9c-1.1,0-2-0.9-2-2V2c0-1.1,0.9-2,2-2l0,0c1.1,0,2,0.9,2,2v21.8C26.8,25,25.8,25.9,24.7,25.9z"/>
<path d="M13.3,21.9L13.3,21.9c-1.1,0-2-0.9-2-2v-10c0-1.1,0.9-2,2-2l0,0c1.1,0,2,0.9,2,2v10C15.4,20.9,14.5,21.9,13.3,21.9z"/>
<path d="M36,21.9L36,21.9c-1.1,0-2-0.9-2-2v-10c0-1.1,0.9-2,2-2l0,0c1.1,0,2,0.9,2,2v10C38,20.9,37.1,21.9,36,21.9z"/>
<path d="M58.7,21.9L58.7,21.9c-1.1,0-2-0.9-2-2v-10c0-1.1,0.9-2,2-2l0,0c1.1,0,2,0.9,2,2v10C60.7,20.9,59.8,21.9,58.7,21.9z"/>
<path d="M2,21.9L2,21.9c-1.1,0-2-0.9-2-2v-4.3c0-1.1,0.9-2,2-2l0,0c1.1,0,2,0.9,2,2v4.3C4.1,20.9,3.2,21.9,2,21.9z"/>
<path d="M47.3,21.9L47.3,21.9c-1.1,0-2-0.9-2-2v-4.3c0-1.1,0.9-2,2-2l0,0c1.1,0,2,0.9,2,2v4.3C49.4,20.9,48.4,21.9,47.3,21.9z"/>
<path d="M69.9,25.9L69.9,25.9c-1.1,0-2-0.9-2-2V2c0-1.1,0.9-2,2-2l0,0c1.1,0,2,0.9,2,2v21.8C72,25,71.1,25.9,69.9,25.9z"/>
<path d="M81.2,21.9L81.2,21.9c-1.1,0-2-0.9-2-2v-10c0-1.1,0.9-2,2-2l0,0c1.1,0,2,0.9,2,2v10C83.3,20.9,82.4,21.9,81.2,21.9z"/>
<path d="M92.5,21.9L92.5,21.9c-1.1,0-2-0.9-2-2v-4.3c0-1.1,0.9-2,2-2l0,0c1.1,0,2,0.9,2,2v4.3C94.6,20.9,93.7,21.9,92.5,21.9z"/>
</svg>
