<?xml version="1.0" encoding="utf-8"?>
<!-- Generator: Adobe Illustrator 23.0.1, SVG Export Plug-In . SVG Version: 6.00 Build 0)  -->
<svg version="1.1" id="Layer_1" xmlns="http://www.w3.org/2000/svg" xmlns:xlink="http://www.w3.org/1999/xlink" x="0px" y="0px"
	 viewBox="0 0 147.4 50" style="enable-background:new 0 0 147.4 50;" xml:space="preserve">
<path d="M16.2,38h3.3v8.9h5.7v2.9h-9V38z M28.5,43.9L28.5,43.9c0-3.4,2.7-6.2,6.4-6.2s6.3,2.7,6.3,6.1l0,0c0,3.4-2.7,6.1-6.4,6.1
	S28.5,47.3,28.5,43.9z M37.8,43.9L37.8,43.9c0-1.7-1.2-3.2-3-3.2s-3,1.4-3,3.1l0,0c0,1.7,1.2,3.2,3,3.2S37.8,45.6,37.8,43.9
	L37.8,43.9z M45.2,44.6V38h3.3v6.5c0,1.7,0.9,2.5,2.2,2.5s2.2-0.8,2.2-2.4V38h3.3v6.5c0,3.8-2.2,5.5-5.5,5.5
	C47.3,50,45.2,48.3,45.2,44.6L45.2,44.6z M61.1,38h4.5c4.2,0,6.6,2.4,6.6,5.8l0,0c0,3.4-2.5,5.9-6.7,5.9H61L61.1,38z M65.7,46.9
	c1.9,0,3.2-1.1,3.2-3l0,0c0-1.9-1.3-3-3.2-3h-1.3v6H65.7L65.7,46.9z M77,38h9.4v2.9h-6.2v2h5.6v2.7h-5.6v4.2H77V38z M90.9,38h3.2
	v8.9h5.7v2.9h-9V38H90.9z M108.4,37.9h3.1l5,11.8H113l-0.9-2.1h-4.5l-0.8,2.1h-3.4L108.4,37.9z M111.3,45.1l-1.3-3.3l-1.3,3.3H111.3
	z M120.8,38h5.6c1.8,0,3,0.5,3.8,1.3c0.7,0.7,1,1.6,1,2.7l0,0c0,1.8-1,3-2.4,3.6l2.8,4.1h-3.8l-2.4-3.6H124v3.6h-3.3V38H120.8z
	 M126.2,43.6c1.1,0,1.7-0.5,1.7-1.4l0,0c0-0.9-0.7-1.4-1.8-1.4H124v2.8L126.2,43.6z M135.9,38h9.5v2.8h-6.2v1.8h5.6v2.6h-5.6V47h6.3
	v2.8H136L135.9,38z M9,45.3c-0.5,1-1.4,1.8-2.7,1.8c-1.8,0-3-1.5-3-3.2l0,0c0-1.7,1.2-3.1,3-3.1c1.3,0,2.4,0.8,2.8,1.9h3.4
	c-0.5-2.8-3-4.9-6.2-4.9c-3.6,0-6.4,2.7-6.4,6.1l0,0C0,47.3,2.7,50,6.3,50c3.1,0,5.5-2,6.2-4.7H9z"/>
<path d="M141.5,19.2l-9-5.2l-1.6-0.7l-36.8,0.3v18.7h47.3L141.5,19.2z"/>
<path d="M125.1,30.6c0.4-1.5,0.3-2.9-0.5-3.9c-0.7-0.9-1.8-1.5-3.2-1.6l-25.8-0.3c-0.2,0-0.3-0.1-0.4-0.2s-0.1-0.3-0.1-0.5
	c0.1-0.3,0.3-0.4,0.6-0.5l26-0.3c3.1-0.1,6.4-2.6,7.6-5.7l1.5-3.9c0.1-0.2,0.1-0.3,0-0.5C129.3,5.7,122.6,0,114.5,0
	c-7.5,0-13.8,4.8-16.1,11.5c-1.5-1.1-3.3-1.7-5.3-1.5c-3.6,0.4-6.5,3.2-6.8,6.8c-0.1,0.9,0,1.8,0.2,2.7C80.7,19.7,76,24.4,76,30.3
	c0,0.5,0,1,0.1,1.6c0,0.3,0.3,0.4,0.5,0.4h47.6c0.3,0,0.5-0.2,0.6-0.5L125.1,30.6z"/>
<path d="M133.3,14.1c-0.2,0-0.5,0-0.7,0s-0.3,0.1-0.4,0.3l-1,3.5c-0.4,1.5-0.3,2.9,0.5,3.9c0.7,0.9,1.8,1.5,3.2,1.6l5.5,0.3
	c0.2,0,0.3,0.1,0.4,0.2s0.1,0.3,0.1,0.5c-0.1,0.3-0.3,0.4-0.6,0.5l-5.7,0.3c-3.1,0.1-6.4,2.6-7.6,5.7l-0.4,1.1
	c-0.1,0.2,0.1,0.4,0.3,0.4h19.7c0.2,0,0.4-0.1,0.5-0.4c0.3-1.2,0.5-2.5,0.5-3.8C147.4,20.4,141.1,14.1,133.3,14.1"/>
</svg>
