<?xml version="1.0" encoding="utf-8"?>
<!-- Generator: Adobe Illustrator 23.0.1, SVG Export Plug-In . SVG Version: 6.00 Build 0)  -->
<svg version="1.1" id="Layer_1" xmlns="http://www.w3.org/2000/svg" xmlns:xlink="http://www.w3.org/1999/xlink" x="0px" y="0px"
	 viewBox="0 0 390.6 50" style="enable-background:new 0 0 390.6 50;" xml:space="preserve">
<g>
	<polygon points="204,3.8 208.6,3.8 199.4,38.1 194.9,38.1 187.5,15.4 187.3,15.4 180,38.1 175.5,38.1 165.9,3.8 170.5,3.8 
		177.8,30.7 178,30.7 185.4,8.4 189.5,8.4 196.9,30.7 197.1,30.7 	"/>
	<g>
		<g>
			<path d="M208.2,26.3c0-3.6,1.1-6.6,3.4-8.9c2.3-2.3,5.2-3.6,8.7-3.6s6.4,1.2,8.6,3.6c2.3,2.3,3.5,5.3,3.5,8.9s-1.2,6.6-3.5,8.9
				c-2.2,2.3-5.1,3.6-8.6,3.6s-6.4-1.2-8.7-3.6C209.3,32.9,208.2,30,208.2,26.3 M212.6,26.3c0,2.5,0.7,4.5,2.2,6.1s3.3,2.3,5.5,2.3
				s4-0.8,5.5-2.3c1.5-1.6,2.2-3.6,2.2-6.1s-0.7-4.5-2.2-6.1s-3.3-2.4-5.5-2.4c-2.1,0-4,0.8-5.5,2.4
				C213.3,21.8,212.6,23.9,212.6,26.3"/>
			<path d="M239.8,38.1h-4.4V14.6h4.2v3.8h0.2c0.4-1.2,1.4-2.3,2.7-3.2c1.4-0.9,2.7-1.3,4.1-1.3c1.3,0,2.3,0.2,3.3,0.6l-1.4,4.3
				c-0.5-0.2-1.4-0.3-2.6-0.3c-1.7,0-3.1,0.7-4.3,2s-1.9,2.9-1.9,4.7L239.8,38.1L239.8,38.1z"/>
			<polygon points="272.6,38.1 267.3,38.1 260,27 256.4,30.5 256.4,38.1 252,38.1 252,3.8 256.4,3.8 256.4,24.9 266.5,14.6 
				272.2,14.6 272.2,14.8 263.1,23.9 272.6,37.9 			"/>
			<path d="M291.7,31.6c0,2.1-0.9,3.8-2.7,5.2c-1.8,1.4-4.1,2.1-6.7,2.1c-2.3,0-4.4-0.6-6.2-1.9c-1.8-1.2-3.1-2.9-3.8-4.8l3.9-1.7
				c0.6,1.4,1.4,2.5,2.5,3.3c1,0.8,2.3,1.2,3.6,1.2c1.4,0,2.6-0.3,3.5-0.9c0.9-0.6,1.4-1.3,1.4-2.2c0-1.5-1.2-2.6-3.5-3.3l-4-1
				c-4.5-1.2-6.8-3.4-6.8-6.6c0-2.2,0.9-3.9,2.6-5.1c1.7-1.3,4-2,6.7-2c2.1,0,4,0.5,5.6,1.5c1.7,1,2.8,2.3,3.5,4l-3.9,1.6
				c-0.4-1-1.2-1.8-2.2-2.3c-1-0.6-2.2-0.8-3.4-0.8c-1.1,0-2.2,0.3-3.1,0.9s-1.4,1.3-1.4,2.1c0,1.3,1.3,2.3,3.8,2.9l3.6,0.9
				C289.3,25.7,291.7,28,291.7,31.6"/>
			<path d="M307,38.9c-1.7,0-3.3-0.4-4.7-1.1c-1.4-0.7-2.5-1.7-3.3-2.9h-0.2l0.2,3.3v10.4h-4.4v-34h4.2v3.3h0.2
				c0.8-1.2,1.9-2.2,3.3-2.9s3-1.1,4.7-1.1c3.1,0,5.7,1.2,7.9,3.6c2.2,2.4,3.3,5.4,3.3,8.8c0,3.5-1.1,6.5-3.3,8.8
				C312.7,37.6,310.1,38.9,307,38.9 M306.3,34.8c2.1,0,3.9-0.8,5.3-2.4c1.4-1.6,2.2-3.6,2.2-6.1c0-2.4-0.7-4.5-2.2-6.1
				c-1.4-1.6-3.2-2.4-5.3-2.4c-2.1,0-3.9,0.8-5.4,2.4c-1.4,1.6-2.1,3.6-2.1,6.1s0.7,4.5,2.1,6.1C302.3,34,304.2,34.8,306.3,34.8"/>
			<path d="M330.2,13.8c3.3,0,5.8,0.9,7.7,2.6c1.9,1.7,2.8,4.1,2.8,7.2v14.5h-4.2v-3.3h-0.2c-1.8,2.7-4.3,4-7.3,4
				c-2.6,0-4.7-0.8-6.5-2.3s-2.6-3.5-2.6-5.8c0-2.4,0.9-4.4,2.7-5.8c1.9-1.4,4.3-2.2,7.3-2.2c2.6,0,4.8,0.5,6.5,1.4v-1
				c0-1.5-0.6-2.8-1.8-3.9c-1.2-1.1-2.7-1.6-4.3-1.6c-2.4,0-4.4,1-5.9,3.1l-3.9-2.4C322.9,15.3,326.1,13.8,330.2,13.8 M324.5,30.9
				c0,1.2,0.5,2.1,1.5,2.9s2.1,1.2,3.4,1.2c1.9,0,3.5-0.7,4.9-2.1c1.4-1.4,2.2-3,2.2-4.8c-1.4-1.1-3.3-1.6-5.8-1.6
				c-1.8,0-3.3,0.4-4.5,1.3C325.1,28.5,324.5,29.6,324.5,30.9"/>
			<path d="M355.7,38.9c-3.5,0-6.4-1.2-8.7-3.6c-2.2-2.4-3.4-5.4-3.4-8.9c0-3.6,1.1-6.6,3.4-8.9s5.2-3.6,8.7-3.6
				c2.4,0,4.5,0.6,6.3,1.8s3.1,2.8,4,4.9l-4,1.7c-1.2-2.9-3.4-4.4-6.5-4.4c-2,0-3.8,0.8-5.2,2.4c-1.4,1.6-2.2,3.6-2.2,6
				s0.7,4.4,2.2,6s3.2,2.4,5.2,2.4c3.2,0,5.5-1.5,6.8-4.4l3.9,1.7c-0.9,2.1-2.2,3.8-4.1,4.9C360.3,38.2,358.1,38.9,355.7,38.9"/>
			<path d="M379.4,38.9c-3.5,0-6.3-1.2-8.5-3.6c-2.2-2.3-3.4-5.3-3.4-8.9s1.1-6.5,3.3-8.9c2.2-2.4,4.9-3.6,8.4-3.6s6.3,1.1,8.3,3.4
				c2.1,2.2,3.1,5.4,3.1,9.5v0.5h-18.4c0,2.3,0.8,4.2,2.3,5.6c1.5,1.4,3.2,2.1,5.3,2.1c2.8,0,5-1.4,6.6-4.2l3.9,1.9
				c-1,1.9-2.5,3.5-4.4,4.6C383.9,38.3,381.8,38.9,379.4,38.9 M372.4,23.5h13.4c-0.1-1.6-0.8-3-2-4.1s-2.8-1.6-4.8-1.6
				c-1.7,0-3.1,0.5-4.3,1.5C373.5,20.4,372.7,21.8,372.4,23.5"/>
		</g>
	</g>
</g>
<g>
	<g>
		<path d="M19.8,23v-5.3h17.7c0.2,1.1,0.3,2.2,0.3,3.3c0,4-1.1,8.9-4.6,12.4c-3.4,3.6-7.8,5.4-13.5,5.4C9,38.8,0,30.1,0,19.4
			S9,0,19.7,0C25.6,0,29.8,2.3,33,5.3l-3.8,3.8c-2.3-2.2-5.3-3.8-9.6-3.8c-7.8,0-13.9,6.3-13.9,14.1s6.1,14.1,13.9,14.1
			c5.1,0,8-2.1,9.8-3.9c1.5-1.5,2.5-3.7,2.9-6.6H19.8z"/>
		<path d="M64.9,26.3c0,7.2-5.6,12.5-12.6,12.5c-6.9,0-12.5-5.3-12.5-12.5s5.6-12.5,12.6-12.5C59.3,13.8,64.9,19.1,64.9,26.3
			 M59.4,26.3c0-4.5-3.3-7.6-7-7.6c-3.8,0-7,3.1-7,7.6c0,4.4,3.3,7.6,7,7.6C56.1,33.9,59.4,30.8,59.4,26.3"/>
		<path d="M92.2,26.3c0,7.2-5.6,12.5-12.6,12.5c-6.9,0-12.6-5.3-12.6-12.5s5.6-12.5,12.6-12.5C86.6,13.8,92.2,19.1,92.2,26.3
			 M86.8,26.3c0-4.5-3.3-7.6-7-7.6c-3.8,0-7,3.1-7,7.6c0,4.4,3.3,7.6,7,7.6C83.5,33.9,86.8,30.8,86.8,26.3"/>
		<path d="M118.5,14.6V37c0,9.2-5.4,13-11.9,13c-6.1,0-9.7-4.1-11.1-7.4l4.8-2c0.8,2.1,2.9,4.4,6.3,4.4c4.1,0,6.7-2.5,6.7-7.3v-1.8
			h-0.2c-1.2,1.5-3.6,2.8-6.6,2.8c-6.3,0-12-5.4-12-12.5s5.7-12.6,12-12.6c3,0,5.3,1.3,6.6,2.8h0.2v-2.1L118.5,14.6L118.5,14.6z
			 M113.6,26.4c0-4.4-2.9-7.6-6.7-7.6c-3.8,0-6.9,3.2-6.9,7.6s3.2,7.5,6.9,7.5C110.7,33.9,113.6,30.7,113.6,26.4"/>
		<rect x="122.3" y="1.5" width="5.5" height="36.6"/>
		<path d="M149,30.5l4.3,2.8c-1.4,2.1-4.7,5.5-10.4,5.5c-7.1,0-12.4-5.5-12.4-12.5c0-7.4,5.3-12.5,11.8-12.5s9.7,5.2,10.7,8l0.6,1.4
			l-16.7,6.9c1.3,2.5,3.3,3.8,6.1,3.8C145.6,33.9,147.6,32.6,149,30.5 M135.9,26l11.2-4.6c-0.6-1.6-2.4-2.6-4.6-2.6
			C139.6,18.7,135.7,21.1,135.9,26"/>
	</g>
</g>
</svg>
