<?xml version="1.0" encoding="utf-8"?>
<!-- Generator: Adobe Illustrator 23.0.1, SVG Export Plug-In . SVG Version: 6.00 Build 0)  -->
<svg version="1.1" id="Layer_1" xmlns="http://www.w3.org/2000/svg" xmlns:xlink="http://www.w3.org/1999/xlink" x="0px" y="0px"
	 viewBox="0 0 468.5 50" style="enable-background:new 0 0 468.5 50;" xml:space="preserve">
<style type="text/css">
	.st0{fill:#000202;}
</style>
<g id="layer1_1_" transform="translate(1079.598 2.13)">
	<g id="g23514_1_" transform="translate(.53 -.53)">
		<path id="path23371_1_" class="st0" d="M-787.7-1.2"/>
		<path id="path23375_1_" class="st0" d="M-691.9,34c-0.1,1.8-1,2.9-2.7,3.1c-2.7,0.3-8.7,0.6-12.8,0.6s-10.2-0.3-12.9-0.6
			c-1.7-0.2-2.6-1.3-2.7-3.1c-0.1-1.2-0.2-7.2-0.2-10.6s0.1-9.4,0.2-10.6c0.1-1.8,1-2.9,2.7-3.1c2.7-0.3,8.8-0.6,12.9-0.6
			c4.1,0,10.1,0.3,12.8,0.6c1.7,0.2,2.6,1.3,2.7,3.1c0.1,1.2,0.2,7.2,0.2,10.6S-691.8,32.8-691.9,34 M-687.5-0.6
			c-6.1-0.7-13.8-1-20-1s-14,0.3-20.1,1c-4.4,0.5-7.4,4.4-7.7,8.5c-0.2,2.6-0.3,13-0.3,15.5c0,2.6,0.2,13,0.3,15.6
			c0.3,4.1,3.3,8,7.7,8.5c6.1,0.7,13.9,0.9,20.1,0.9c6.2,0,13.9-0.3,20-0.9c4.4-0.5,7.4-4.4,7.7-8.5c0.2-2.6,0.3-13,0.3-15.6
			s-0.1-12.9-0.3-15.5C-680.1,3.8-683.1-0.1-687.5-0.6"/>
		<path id="path23377_1_" class="st0" d="M-757.2,34c-0.1,1.8-1,2.9-2.7,3.1c-2.7,0.3-8.7,0.6-12.8,0.6s-10.2-0.3-12.9-0.6
			c-1.7-0.2-2.6-1.3-2.7-3.1c-0.1-1.2-0.2-7.2-0.2-10.6s0.1-9.4,0.2-10.6c0.1-1.8,1-2.9,2.7-3.1c2.7-0.3,8.8-0.6,12.9-0.6
			c4.1,0,10.1,0.3,12.8,0.6c1.7,0.2,2.6,1.3,2.7,3.1c0.1,1.2,0.2,7.2,0.2,10.6C-756.9,26.8-757.1,32.8-757.2,34 M-752.7-0.6
			c-6.1-0.7-13.8-1-20-1s-14,0.3-20.1,1c-4.4,0.5-7.4,4.4-7.7,8.5c-0.2,2.6-0.3,13-0.3,15.5c0,2.6,0.1,13,0.3,15.6
			c0.3,4.1,3.3,8,7.7,8.5c6.1,0.7,13.9,0.9,20.1,0.9c6.2,0,13.9-0.3,20-0.9c4.4-0.5,7.4-4.4,7.7-8.5c0.2-2.6,0.3-13,0.3-15.6
			s-0.1-12.9-0.3-15.5C-745.3,3.8-748.3-0.1-752.7-0.6"/>
		<path id="path23379_1_" class="st0" d="M-823.6,16.8c-0.1,1.8-1,2.9-2.7,3.1c-2.7,0.3-8.7,0.6-12.8,0.6s-10.7-0.3-13.1-0.5
			c-0.3-0.1-2.1-0.3-2.7-0.3V10c0.6-0.1,2.5-0.3,3.8-0.4c2.6-0.3,7.8-0.5,12-0.5c4.1,0,10.1,0.3,12.8,0.6c1.7,0.2,2.6,1.3,2.7,3.1
			c0.1,0.9,0.1,0.8,0.1,1.8C-823.6,16.3-823.6,15.9-823.6,16.8 M-822.8,30.5L-822.8,30.5c1.3-0.1,2.5-0.2,3.7-0.3
			c2.9-0.3,5.1-2.1,6.4-4.4c0.7-1.5,1.1-3.1,1.3-4.6c0.1-1.8,0.3-1.6,0.3-4.2c0-3.5-0.1-7.3-0.3-9.1c-0.3-4.1-3.3-8-7.7-8.5
			c-6.1-0.7-13.8-1-20-1s-13.6,0.3-19.4,0.8c-4,0.4-8.8,0.9-8.8,0.9V48h12.3V30.6h0.1l0,0c4.7,0.3,11.2,0.5,15.8,0.5
			c1.1,0,2.2,0,3.3,0l11,17h13.9l-9.6-14.1C-820.4,33.9-822.8,30.5-822.8,30.5"/>
		<path id="path23381_1_" class="st0" d="M-892.9,18.1c-2.5,0.3-7.6,0.5-11.7,0.5h-17.2V9.8c0.6-0.1,2.5-0.2,3.8-0.3
			c2.6-0.3,8.6-0.5,12.8-0.5c4.1,0,10,0.3,12.5,0.6c2.1,0.3,2.7,2,2.7,4.3C-890.1,16.2-890.8,17.9-892.9,18.1 M-892.8,37.3
			c-2.5,0.3-8.4,0.5-12.5,0.5c-4.2,0-10.2-0.2-12.8-0.5c-1.3-0.1-3.2-0.3-3.8-0.4v-8.8h17.2c4.1,0,9.2,0.2,11.7,0.5
			c2.1,0.3,2.8,2.1,2.8,4.4C-890.1,35.3-890.7,37-892.8,37.3 M-877.9,11.5c0-5.2-1.4-11.4-7.8-12.1c-6-0.7-13.5-1-19.5-1
			c-6.2,0-14.4,0.3-20.1,0.8c-4,0.4-8.8,0.9-8.8,0.9v46.5c0.7,0.1,5.1,0.6,8.8,0.9c5.7,0.5,13.9,0.8,20.1,0.8
			c6.1,0,13.5-0.3,19.5-0.9c6.4-0.7,7.9-7,7.9-12.2c0-4-0.8-9.1-4.2-11.2c-0.3-0.2-1.1-0.5-1.3-0.7c0.3-0.2,1-0.6,1.3-0.8
			C-878.7,20.5-877.9,15.5-877.9,11.5"/>
		<path id="path23383_1_" class="st0" d="M-984,9.6c2.7-0.3,8.8-0.6,12.9-0.6c6,0,15,0.1,21.1,0.4c0.9,0.1,3.9,0.4,5,0.6l0.8-10.5
			c-1.3-0.2-4.7-0.6-5.7-0.7c-6-0.4-15.2-0.4-21.3-0.4c-6.2,0-14,0.3-20.1,1c-4.4,0.5-7.4,4.4-7.7,8.4c-0.2,2.6-0.3,13-0.3,15.5
			c0,2.6,0.1,13,0.3,15.6c0.3,4.1,3.3,8,7.7,8.5c6.1,0.7,13.9,0.9,20.1,0.9c6,0,15.3,0,21.3-0.4c0.9-0.1,4.4-0.5,5.7-0.7l-0.8-10.5
			c-1.2,0.2-4.2,0.6-5,0.7c-6,0.5-15.1,0.4-21.1,0.4c-4.1,0-10.2-0.3-12.9-0.6c-1.7-0.2-2.6-1.3-2.7-3.1c-0.1-0.8-0.1-3.5-0.1-5.8
			h28.3v-9.9h-28.3c0-2.3,0.1-4.9,0.1-5.7C-986.7,10.9-985.8,9.8-984,9.6"/>
		<path id="polygon23385_1_" class="st0" d="M-673.1-1.2V9.5h24.6V48h12.3V9.5h24.5V-1.2H-673.1z"/>
		<path id="path23387_1_" class="st0" d="M-1006.5-1.3L-1006.5-1.3h-12.3c-0.3,1.6-4.2,15.4-4.7,16.9c-0.4,1.5-2.9,9-3.4,10.5
			c-0.1,0.2-0.9,2.2-1,2.4l-10.9-24.1h-9.1l-10.9,24.1c-0.1-0.2-0.9-2.2-1-2.4c-0.5-1.5-3-9-3.4-10.5s-4.4-15.3-4.7-16.9h-12.3l0,0
			h-0.1l0,0l0,0l0.2,0.6l0,0c0.5,2.6,7.3,25.3,8,27.8s4.9,15.1,5.8,17.6c0.1,0.3,0.2,0.5,0.3,0.7l0,0c0.8,2.4,2.6,2.7,4.9,2.8h0.3
			c2.4,0,3.9-0.5,4.8-2.1l12.4-27.5l12.4,27.5c0.9,1.6,2.5,2.1,4.8,2.1h0.3c2.4-0.1,4.2-0.5,4.9-2.8l0,0c0.1-0.2,0.2-0.5,0.3-0.7
			c0.9-2.4,5.1-15.1,5.9-17.6c0.7-2.5,7.5-25.3,8.1-27.8l0,0l0.2-0.6L-1006.5-1.3L-1006.5-1.3L-1006.5-1.3z"/>
	</g>
</g>
</svg>
